G04*
G04 #@! TF.GenerationSoftware,Altium Limited,Altium Designer,22.9.1 (49)*
G04*
G04 Layer_Color=32896*
%FSLAX44Y44*%
%MOMM*%
G71*
G04*
G04 #@! TF.SameCoordinates,3AF70149-3D4E-492E-B143-9ECFE05FD8F5*
G04*
G04*
G04 #@! TF.FilePolarity,Positive*
G04*
G01*
G75*
%ADD17C,0.2540*%
G36*
X646559Y960185D02*
X643103D01*
Y960126D01*
X643044Y960068D01*
X642986Y959716D01*
X642810Y959189D01*
X642634Y958486D01*
X642342Y957784D01*
X641990Y957022D01*
X641580Y956319D01*
X641053Y955734D01*
X640994Y955675D01*
X640760Y955499D01*
X640467Y955265D01*
X639940Y955031D01*
X639354Y954796D01*
X638652Y954562D01*
X637773Y954386D01*
X636777Y954328D01*
X636250D01*
X635840Y954386D01*
X635020Y954504D01*
X634083Y954796D01*
X634024D01*
X633907Y954914D01*
X633673Y955031D01*
X633380Y955206D01*
X632794Y955734D01*
X632209Y956436D01*
X632150Y956495D01*
X632091Y956612D01*
X631974Y956905D01*
X631857Y957198D01*
X631740Y957608D01*
X631623Y958076D01*
X631506Y958604D01*
Y959189D01*
Y959248D01*
Y959482D01*
Y959775D01*
X631564Y960126D01*
X631740Y961005D01*
X632091Y961884D01*
Y961942D01*
X632209Y962059D01*
X632326Y962294D01*
X632560Y962587D01*
X632794Y962879D01*
X633146Y963231D01*
X633497Y963641D01*
X633966Y963992D01*
X634024Y964051D01*
X634200Y964168D01*
X634493Y964402D01*
X634844Y964695D01*
X635371Y964988D01*
X635957Y965398D01*
X636660Y965808D01*
X637480Y966218D01*
X637539Y966277D01*
X637831Y966394D01*
X638183Y966570D01*
X638652Y966862D01*
X639179Y967155D01*
X639764Y967507D01*
X640994Y968210D01*
X641053Y968268D01*
X641229Y968385D01*
X641580Y968620D01*
X641932Y968912D01*
X642810Y969615D01*
X643689Y970494D01*
X643747Y970552D01*
X643864Y970728D01*
X644099Y970962D01*
X644333Y971314D01*
X644626Y971724D01*
X644919Y972251D01*
X645446Y973305D01*
Y973364D01*
X645563Y973598D01*
X645622Y973891D01*
X645739Y974301D01*
X645856Y974770D01*
X645914Y975355D01*
X646032Y976644D01*
Y976702D01*
Y976761D01*
Y976937D01*
Y977171D01*
X645973Y977757D01*
X645856Y978460D01*
X645680Y979280D01*
X645387Y980158D01*
X645036Y981037D01*
X644509Y981857D01*
X644450Y981974D01*
X644216Y982208D01*
X643864Y982618D01*
X643396Y983087D01*
X642751Y983614D01*
X641990Y984141D01*
X641112Y984668D01*
X640116Y985137D01*
X640057D01*
X639999Y985195D01*
X639823Y985254D01*
X639589Y985313D01*
X639003Y985488D01*
X638183Y985723D01*
X637187Y985898D01*
X636016Y986074D01*
X634786Y986191D01*
X633380Y986250D01*
X646559D01*
Y960185D01*
D02*
G37*
G36*
X631389Y986191D02*
X630686Y986133D01*
X629163Y986015D01*
X629046D01*
X628811Y985957D01*
X628401Y985898D01*
X627816Y985840D01*
X627113Y985723D01*
X626351Y985547D01*
X625473Y985430D01*
X624535Y985195D01*
Y977933D01*
X627991D01*
Y978050D01*
X628050Y978284D01*
X628167Y978635D01*
X628343Y979104D01*
X628694Y980100D01*
X628928Y980627D01*
X629221Y981095D01*
X629280Y981154D01*
X629338Y981271D01*
X629514Y981506D01*
X629690Y981740D01*
X630276Y982326D01*
X630627Y982560D01*
X631037Y982794D01*
X631096D01*
X631213Y982853D01*
X631447Y982970D01*
X631799Y983087D01*
X632150Y983146D01*
X632618Y983263D01*
X633204Y983321D01*
X634317D01*
X634610Y983263D01*
X635489Y983087D01*
X636367Y982794D01*
X636426D01*
X636543Y982736D01*
X636777Y982618D01*
X637011Y982443D01*
X637597Y981974D01*
X638124Y981330D01*
Y981271D01*
X638241Y981154D01*
X638300Y980978D01*
X638417Y980685D01*
X638534Y980334D01*
X638652Y979924D01*
X638710Y979514D01*
X638769Y978987D01*
Y978928D01*
Y978753D01*
X638710Y978460D01*
Y978108D01*
X638534Y977288D01*
X638241Y976468D01*
X638183Y976410D01*
X638124Y976292D01*
X638007Y976058D01*
X637773Y975824D01*
X637539Y975472D01*
X637187Y975121D01*
X636777Y974770D01*
X636309Y974360D01*
X636250Y974301D01*
X636074Y974184D01*
X635723Y973950D01*
X635313Y973715D01*
X634786Y973364D01*
X634083Y972954D01*
X633321Y972544D01*
X632443Y972075D01*
X632384D01*
X632326Y972017D01*
X632150Y971900D01*
X631916Y971782D01*
X631389Y971490D01*
X630686Y971080D01*
X629924Y970611D01*
X629104Y970084D01*
X628343Y969498D01*
X627640Y968912D01*
X627581Y968854D01*
X627347Y968620D01*
X627054Y968327D01*
X626644Y967917D01*
X626234Y967448D01*
X625824Y966862D01*
X625414Y966218D01*
X625063Y965574D01*
X625004Y965515D01*
X624945Y965281D01*
X624770Y964871D01*
X624594Y964402D01*
X624477Y963817D01*
X624301Y963055D01*
X624243Y962294D01*
X624184Y961415D01*
Y960888D01*
X624243Y960302D01*
X624360Y959599D01*
X624535Y958721D01*
X624828Y957842D01*
X625180Y956905D01*
X625648Y956027D01*
X625707Y955909D01*
X625883Y955675D01*
X626234Y955265D01*
X626703Y954796D01*
X627288Y954211D01*
X627991Y953684D01*
X628811Y953098D01*
X629807Y952629D01*
X629866D01*
X629924Y952571D01*
X630276Y952454D01*
X630861Y952278D01*
X631623Y952044D01*
X632501Y951809D01*
X633614Y951634D01*
X634786Y951516D01*
X636074Y951458D01*
X637011D01*
X637656Y951516D01*
X638476D01*
X639354Y951575D01*
X640350Y951634D01*
X641346Y951692D01*
X641463D01*
X641814Y951751D01*
X642342Y951809D01*
X643044Y951868D01*
X643806Y951985D01*
X644684Y952161D01*
X646559Y952512D01*
Y951458D01*
Y951000D01*
X410809D01*
Y986250D01*
X423105D01*
X422402Y986191D01*
X421582Y986133D01*
X420586Y986015D01*
X419591Y985840D01*
X418653Y985605D01*
X417716Y985254D01*
X417599Y985195D01*
X417306Y985078D01*
X416896Y984844D01*
X416428Y984551D01*
X415842Y984200D01*
X415315Y983731D01*
X414788Y983204D01*
X414378Y982618D01*
X414319Y982560D01*
X414202Y982326D01*
X414026Y981974D01*
X413851Y981506D01*
X413675Y980920D01*
X413499Y980275D01*
X413382Y979514D01*
X413323Y978694D01*
Y978635D01*
Y978343D01*
X413382Y977991D01*
X413441Y977464D01*
X413499Y976937D01*
X413616Y976292D01*
X413851Y975648D01*
X414085Y975004D01*
X414143Y974945D01*
X414202Y974711D01*
X414378Y974360D01*
X414671Y973891D01*
X415022Y973305D01*
X415432Y972661D01*
X415959Y971900D01*
X416604Y971138D01*
X416662Y971021D01*
X416955Y970728D01*
X417424Y970260D01*
X418068Y969557D01*
X418888Y968678D01*
X419942Y967624D01*
X421231Y966335D01*
X422695Y964930D01*
X422754Y964871D01*
X423046Y964637D01*
X423398Y964227D01*
X423867Y963758D01*
X424452Y963172D01*
X425038Y962528D01*
X426326Y961122D01*
X426385Y961064D01*
X426619Y960829D01*
X426912Y960478D01*
X427264Y960068D01*
X428025Y959072D01*
X428377Y958604D01*
X428728Y958135D01*
Y957901D01*
X419298D01*
X418946Y957959D01*
X418185Y958018D01*
X417775Y958076D01*
X417482Y958135D01*
X417424D01*
X417365Y958194D01*
X417014Y958311D01*
X416604Y958604D01*
X416194Y958955D01*
X416135Y959072D01*
X415901Y959424D01*
X415666Y959951D01*
X415432Y960712D01*
X412562D01*
X413148Y951809D01*
X435991D01*
Y953449D01*
X435932Y953566D01*
X435815Y953859D01*
X435581Y954386D01*
X435229Y955031D01*
X434819Y955792D01*
X434292Y956671D01*
X433707Y957608D01*
X433004Y958662D01*
Y958721D01*
X432887Y958779D01*
X432828Y958955D01*
X432652Y959131D01*
X432242Y959716D01*
X431657Y960478D01*
X430954Y961415D01*
X430134Y962469D01*
X429197Y963582D01*
X428142Y964812D01*
X428084Y964871D01*
X428025Y964930D01*
X427908Y965105D01*
X427674Y965340D01*
X427205Y965925D01*
X426619Y966628D01*
X425975Y967448D01*
X425272Y968327D01*
X424628Y969205D01*
X424042Y970025D01*
X423984Y970142D01*
X423808Y970377D01*
X423574Y970787D01*
X423222Y971255D01*
X422929Y971900D01*
X422578Y972544D01*
X422226Y973188D01*
X421934Y973891D01*
X421875Y973950D01*
X421816Y974184D01*
X421699Y974594D01*
X421582Y975062D01*
X421465Y975648D01*
X421348Y976292D01*
X421231Y976937D01*
Y977698D01*
Y977757D01*
Y977815D01*
Y978167D01*
X421289Y978635D01*
X421406Y979221D01*
X421524Y979924D01*
X421758Y980627D01*
X422051Y981330D01*
X422461Y981974D01*
X422519Y982033D01*
X422695Y982208D01*
X422988Y982501D01*
X423339Y982794D01*
X423808Y983028D01*
X424394Y983321D01*
X425038Y983497D01*
X425799Y983556D01*
X426151D01*
X426502Y983497D01*
X426971Y983380D01*
X427498Y983204D01*
X428025Y982970D01*
X428611Y982618D01*
X429138Y982150D01*
X429197Y982091D01*
X429372Y981857D01*
X429548Y981564D01*
X429841Y981095D01*
X430134Y980451D01*
X430485Y979690D01*
X430778Y978753D01*
X431012Y977698D01*
X435522D01*
Y983556D01*
X435464D01*
X435405Y983614D01*
X434995Y983731D01*
X434468Y983966D01*
X433765Y984258D01*
X433004Y984493D01*
X432242Y984786D01*
X431481Y985020D01*
X430778Y985254D01*
X430719D01*
X430485Y985371D01*
X430134Y985430D01*
X429665Y985547D01*
X429197Y985664D01*
X428611Y985781D01*
X427381Y986015D01*
X427322D01*
X427088Y986074D01*
X426736D01*
X426268Y986133D01*
X425741Y986191D01*
X425097D01*
X424394Y986250D01*
X492045D01*
X491400Y986191D01*
X490698Y986133D01*
X489175Y986015D01*
X489058D01*
X488823Y985957D01*
X488413Y985898D01*
X487827Y985840D01*
X487125Y985723D01*
X486363Y985547D01*
X485485Y985430D01*
X484548Y985195D01*
Y977933D01*
X488003D01*
Y978050D01*
X488062Y978284D01*
X488179Y978635D01*
X488355Y979104D01*
X488706Y980100D01*
X488940Y980627D01*
X489233Y981095D01*
X489292Y981154D01*
X489350Y981271D01*
X489526Y981506D01*
X489702Y981740D01*
X490288Y982326D01*
X490639Y982560D01*
X491049Y982794D01*
X491108D01*
X491225Y982853D01*
X491459Y982970D01*
X491810Y983087D01*
X492162Y983146D01*
X492631Y983263D01*
X493216Y983321D01*
X494329D01*
X494622Y983263D01*
X495500Y983087D01*
X496379Y982794D01*
X496438D01*
X496555Y982736D01*
X496789Y982618D01*
X497023Y982443D01*
X497609Y981974D01*
X498136Y981330D01*
Y981271D01*
X498253Y981154D01*
X498312Y980978D01*
X498429Y980685D01*
X498546Y980334D01*
X498663Y979924D01*
X498722Y979514D01*
X498781Y978987D01*
Y978928D01*
Y978753D01*
X498722Y978460D01*
Y978108D01*
X498546Y977288D01*
X498253Y976468D01*
X498195Y976410D01*
X498136Y976292D01*
X498019Y976058D01*
X497785Y975824D01*
X497551Y975472D01*
X497199Y975121D01*
X496789Y974770D01*
X496320Y974360D01*
X496262Y974301D01*
X496086Y974184D01*
X495735Y973950D01*
X495325Y973715D01*
X494798Y973364D01*
X494095Y972954D01*
X493333Y972544D01*
X492455Y972075D01*
X492396D01*
X492338Y972017D01*
X492162Y971900D01*
X491928Y971782D01*
X491400Y971490D01*
X490698Y971080D01*
X489936Y970611D01*
X489116Y970084D01*
X488355Y969498D01*
X487652Y968912D01*
X487593Y968854D01*
X487359Y968620D01*
X487066Y968327D01*
X486656Y967917D01*
X486246Y967448D01*
X485836Y966862D01*
X485426Y966218D01*
X485075Y965574D01*
X485016Y965515D01*
X484958Y965281D01*
X484782Y964871D01*
X484606Y964402D01*
X484489Y963817D01*
X484313Y963055D01*
X484255Y962294D01*
X484196Y961415D01*
Y960888D01*
X484255Y960302D01*
X484372Y959599D01*
X484548Y958721D01*
X484840Y957842D01*
X485192Y956905D01*
X485660Y956027D01*
X485719Y955909D01*
X485895Y955675D01*
X486246Y955265D01*
X486715Y954796D01*
X487300Y954211D01*
X488003Y953684D01*
X488823Y953098D01*
X489819Y952629D01*
X489878D01*
X489936Y952571D01*
X490288Y952454D01*
X490873Y952278D01*
X491635Y952044D01*
X492513Y951809D01*
X493626Y951634D01*
X494798Y951516D01*
X496086Y951458D01*
X497023D01*
X497668Y951516D01*
X498488D01*
X499366Y951575D01*
X500362Y951634D01*
X501358Y951692D01*
X501475D01*
X501826Y951751D01*
X502354Y951809D01*
X503056Y951868D01*
X503818Y951985D01*
X504696Y952161D01*
X506571Y952512D01*
Y960185D01*
X503115D01*
Y960126D01*
X503056Y960068D01*
X502998Y959716D01*
X502822Y959189D01*
X502646Y958486D01*
X502354Y957784D01*
X502002Y957022D01*
X501592Y956319D01*
X501065Y955734D01*
X501006Y955675D01*
X500772Y955499D01*
X500479Y955265D01*
X499952Y955031D01*
X499366Y954796D01*
X498663Y954562D01*
X497785Y954386D01*
X496789Y954328D01*
X496262D01*
X495852Y954386D01*
X495032Y954504D01*
X494095Y954796D01*
X494036D01*
X493919Y954914D01*
X493685Y955031D01*
X493392Y955206D01*
X492806Y955734D01*
X492220Y956436D01*
X492162Y956495D01*
X492103Y956612D01*
X491986Y956905D01*
X491869Y957198D01*
X491752Y957608D01*
X491635Y958076D01*
X491518Y958604D01*
Y959189D01*
Y959248D01*
Y959482D01*
Y959775D01*
X491576Y960126D01*
X491752Y961005D01*
X492103Y961884D01*
Y961942D01*
X492220Y962059D01*
X492338Y962294D01*
X492572Y962587D01*
X492806Y962879D01*
X493158Y963231D01*
X493509Y963641D01*
X493978Y963992D01*
X494036Y964051D01*
X494212Y964168D01*
X494505Y964402D01*
X494856Y964695D01*
X495383Y964988D01*
X495969Y965398D01*
X496672Y965808D01*
X497492Y966218D01*
X497551Y966277D01*
X497843Y966394D01*
X498195Y966570D01*
X498663Y966862D01*
X499191Y967155D01*
X499776Y967507D01*
X501006Y968210D01*
X501065Y968268D01*
X501241Y968385D01*
X501592Y968620D01*
X501944Y968912D01*
X502822Y969615D01*
X503701Y970494D01*
X503759Y970552D01*
X503876Y970728D01*
X504111Y970962D01*
X504345Y971314D01*
X504638Y971724D01*
X504931Y972251D01*
X505458Y973305D01*
Y973364D01*
X505575Y973598D01*
X505634Y973891D01*
X505751Y974301D01*
X505868Y974770D01*
X505926Y975355D01*
X506044Y976644D01*
Y976702D01*
Y976761D01*
Y976937D01*
Y977171D01*
X505985Y977757D01*
X505868Y978460D01*
X505692Y979280D01*
X505399Y980158D01*
X505048Y981037D01*
X504521Y981857D01*
X504462Y981974D01*
X504228Y982208D01*
X503876Y982618D01*
X503408Y983087D01*
X502763Y983614D01*
X502002Y984141D01*
X501124Y984668D01*
X500128Y985137D01*
X500069D01*
X500011Y985195D01*
X499835Y985254D01*
X499601Y985313D01*
X499015Y985488D01*
X498195Y985723D01*
X497199Y985898D01*
X496028Y986074D01*
X494798Y986191D01*
X493392Y986250D01*
X632033D01*
X631389Y986191D01*
D02*
G37*
G36*
X646250Y887199D02*
X646192Y887316D01*
X646074Y887609D01*
X645840Y888137D01*
X645489Y888781D01*
X645079Y889542D01*
X644551Y890421D01*
X643966Y891358D01*
X643263Y892412D01*
Y892471D01*
X643146Y892529D01*
X643087Y892705D01*
X642912Y892881D01*
X642502Y893466D01*
X641916Y894228D01*
X641213Y895165D01*
X640393Y896219D01*
X639456Y897332D01*
X638401Y898562D01*
X638343Y898621D01*
X638284Y898680D01*
X638167Y898855D01*
X637933Y899090D01*
X637464Y899675D01*
X636879Y900378D01*
X636234Y901198D01*
X635531Y902077D01*
X634887Y902955D01*
X634301Y903775D01*
X634243Y903892D01*
X634067Y904127D01*
X633833Y904537D01*
X633481Y905005D01*
X633189Y905650D01*
X632837Y906294D01*
X632486Y906938D01*
X632193Y907641D01*
X632134Y907700D01*
X632076Y907934D01*
X631959Y908344D01*
X631841Y908812D01*
X631724Y909398D01*
X631607Y910042D01*
X631490Y910687D01*
Y911448D01*
Y911507D01*
Y911565D01*
Y911917D01*
X631549Y912385D01*
X631666Y912971D01*
X631783Y913674D01*
X632017Y914377D01*
X632310Y915080D01*
X632720Y915724D01*
X632779Y915783D01*
X632954Y915958D01*
X633247Y916251D01*
X633599Y916544D01*
X634067Y916778D01*
X634653Y917071D01*
X635297Y917247D01*
X636059Y917306D01*
X636410D01*
X636761Y917247D01*
X637230Y917130D01*
X637757Y916954D01*
X638284Y916720D01*
X638870Y916368D01*
X639397Y915900D01*
X639456Y915841D01*
X639632Y915607D01*
X639807Y915314D01*
X640100Y914846D01*
X640393Y914201D01*
X640744Y913440D01*
X641037Y912503D01*
X641272Y911448D01*
X645782D01*
Y917306D01*
X645723D01*
X645664Y917364D01*
X645254Y917481D01*
X644727Y917716D01*
X644024Y918008D01*
X643263Y918243D01*
X642502Y918536D01*
X641740Y918770D01*
X641037Y919004D01*
X640979D01*
X640744Y919121D01*
X640393Y919180D01*
X639924Y919297D01*
X639456Y919414D01*
X638870Y919531D01*
X637640Y919765D01*
X637581D01*
X637347Y919824D01*
X636996D01*
X636527Y919883D01*
X636000Y919941D01*
X635356D01*
X634653Y920000D01*
X646250D01*
Y887199D01*
D02*
G37*
G36*
X604019Y917130D02*
X604312Y917071D01*
X604722Y916954D01*
X605074Y916837D01*
X605484Y916603D01*
X605835Y916310D01*
X605894Y916251D01*
X605952Y916134D01*
X606128Y915958D01*
X606362Y915666D01*
X606597Y915314D01*
X606831Y914846D01*
X607065Y914318D01*
X607299Y913674D01*
Y913615D01*
X607358Y913381D01*
X607475Y912971D01*
X607592Y912444D01*
X607710Y911800D01*
X607827Y911038D01*
X607944Y910218D01*
X608061Y909222D01*
Y909105D01*
X608120Y908754D01*
Y908227D01*
X608178Y907465D01*
X608237Y906528D01*
Y905474D01*
X608295Y904244D01*
Y902955D01*
Y902897D01*
Y902721D01*
Y902428D01*
Y902077D01*
Y901608D01*
Y901081D01*
X608237Y900495D01*
Y899851D01*
X608178Y898445D01*
X608120Y896981D01*
X608002Y895575D01*
X607827Y894228D01*
Y894169D01*
Y894111D01*
X607768Y893935D01*
X607710Y893701D01*
X607592Y893115D01*
X607417Y892412D01*
X607182Y891651D01*
X606948Y890831D01*
X606597Y890069D01*
X606245Y889425D01*
X606187Y889367D01*
X606069Y889191D01*
X605835Y888957D01*
X605484Y888664D01*
X605074Y888371D01*
X604605Y888137D01*
X604078Y887961D01*
X603434Y887902D01*
X603082D01*
X602848Y887961D01*
X602321Y888078D01*
X601794Y888371D01*
X601735D01*
X601676Y888488D01*
X601384Y888722D01*
X600974Y889191D01*
X600564Y889835D01*
Y889894D01*
X600447Y890011D01*
X600329Y890245D01*
X600212Y890538D01*
X600037Y890889D01*
X599919Y891358D01*
X599744Y891885D01*
X599568Y892471D01*
Y892529D01*
X599509Y892764D01*
X599451Y893115D01*
X599334Y893584D01*
X599216Y894169D01*
X599158Y894872D01*
X599041Y895634D01*
X598982Y896512D01*
Y896629D01*
X598924Y896922D01*
Y897449D01*
X598865Y898094D01*
Y898914D01*
X598806Y899851D01*
Y900847D01*
Y901960D01*
Y902018D01*
Y902135D01*
Y902370D01*
Y902721D01*
Y903072D01*
Y903541D01*
X598865Y904595D01*
Y905767D01*
X598924Y906997D01*
X599041Y908285D01*
X599158Y909457D01*
Y909515D01*
Y909574D01*
X599216Y909984D01*
X599275Y910511D01*
X599392Y911214D01*
X599568Y911917D01*
X599744Y912737D01*
X599919Y913498D01*
X600154Y914143D01*
Y914201D01*
X600271Y914436D01*
X600388Y914728D01*
X600564Y915080D01*
X601032Y915841D01*
X601325Y916193D01*
X601618Y916486D01*
X601676Y916544D01*
X601735Y916603D01*
X601911Y916720D01*
X602145Y916837D01*
X602789Y917071D01*
X603141Y917188D01*
X603785D01*
X604019Y917130D01*
D02*
G37*
G36*
X632661Y919941D02*
X631841Y919883D01*
X630846Y919765D01*
X629850Y919590D01*
X628913Y919355D01*
X627976Y919004D01*
X627858Y918945D01*
X627565Y918828D01*
X627155Y918594D01*
X626687Y918301D01*
X626101Y917950D01*
X625574Y917481D01*
X625047Y916954D01*
X624637Y916368D01*
X624578Y916310D01*
X624461Y916076D01*
X624286Y915724D01*
X624110Y915256D01*
X623934Y914670D01*
X623758Y914025D01*
X623641Y913264D01*
X623583Y912444D01*
Y912385D01*
Y912093D01*
X623641Y911741D01*
X623700Y911214D01*
X623758Y910687D01*
X623876Y910042D01*
X624110Y909398D01*
X624344Y908754D01*
X624403Y908695D01*
X624461Y908461D01*
X624637Y908110D01*
X624930Y907641D01*
X625281Y907055D01*
X625691Y906411D01*
X626218Y905650D01*
X626863Y904888D01*
X626921Y904771D01*
X627214Y904478D01*
X627683Y904010D01*
X628327Y903307D01*
X629147Y902428D01*
X630201Y901374D01*
X631490Y900085D01*
X632954Y898680D01*
X633013Y898621D01*
X633306Y898387D01*
X633657Y897977D01*
X634126Y897508D01*
X634711Y896922D01*
X635297Y896278D01*
X636586Y894872D01*
X636644Y894814D01*
X636879Y894579D01*
X637171Y894228D01*
X637523Y893818D01*
X638284Y892822D01*
X638636Y892354D01*
X638987Y891885D01*
Y891651D01*
X629557D01*
X629206Y891709D01*
X628444Y891768D01*
X628034Y891826D01*
X627741Y891885D01*
X627683D01*
X627624Y891944D01*
X627273Y892061D01*
X626863Y892354D01*
X626453Y892705D01*
X626394Y892822D01*
X626160Y893174D01*
X625925Y893701D01*
X625691Y894462D01*
X622821D01*
X623407Y885559D01*
X646250D01*
Y883750D01*
X531975D01*
Y885559D01*
Y920000D01*
X542518D01*
X541816Y919941D01*
X540995Y919883D01*
X540000Y919765D01*
X539004Y919590D01*
X538067Y919355D01*
X537130Y919004D01*
X537013Y918945D01*
X536720Y918828D01*
X536310Y918594D01*
X535841Y918301D01*
X535255Y917950D01*
X534728Y917481D01*
X534201Y916954D01*
X533791Y916368D01*
X533733Y916310D01*
X533615Y916076D01*
X533440Y915724D01*
X533264Y915256D01*
X533088Y914670D01*
X532912Y914025D01*
X532795Y913264D01*
X532737Y912444D01*
Y912385D01*
Y912093D01*
X532795Y911741D01*
X532854Y911214D01*
X532912Y910687D01*
X533030Y910042D01*
X533264Y909398D01*
X533498Y908754D01*
X533557Y908695D01*
X533615Y908461D01*
X533791Y908110D01*
X534084Y907641D01*
X534435Y907055D01*
X534845Y906411D01*
X535373Y905650D01*
X536017Y904888D01*
X536076Y904771D01*
X536368Y904478D01*
X536837Y904010D01*
X537481Y903307D01*
X538301Y902428D01*
X539356Y901374D01*
X540644Y900085D01*
X542108Y898680D01*
X542167Y898621D01*
X542460Y898387D01*
X542811Y897977D01*
X543280Y897508D01*
X543866Y896922D01*
X544451Y896278D01*
X545740Y894872D01*
X545798Y894814D01*
X546033Y894579D01*
X546326Y894228D01*
X546677Y893818D01*
X547439Y892822D01*
X547790Y892354D01*
X548141Y891885D01*
Y891651D01*
X538711D01*
X538360Y891709D01*
X537598Y891768D01*
X537188Y891826D01*
X536895Y891885D01*
X536837D01*
X536778Y891944D01*
X536427Y892061D01*
X536017Y892354D01*
X535607Y892705D01*
X535548Y892822D01*
X535314Y893174D01*
X535080Y893701D01*
X534845Y894462D01*
X531975D01*
X532561Y885559D01*
X555404D01*
Y887199D01*
X555346Y887316D01*
X555229Y887609D01*
X554994Y888137D01*
X554643Y888781D01*
X554233Y889542D01*
X553706Y890421D01*
X553120Y891358D01*
X552417Y892412D01*
Y892471D01*
X552300Y892529D01*
X552241Y892705D01*
X552066Y892881D01*
X551656Y893466D01*
X551070Y894228D01*
X550367Y895165D01*
X549547Y896219D01*
X548610Y897332D01*
X547556Y898562D01*
X547497Y898621D01*
X547439Y898680D01*
X547321Y898855D01*
X547087Y899090D01*
X546618Y899675D01*
X546033Y900378D01*
X545388Y901198D01*
X544686Y902077D01*
X544041Y902955D01*
X543456Y903775D01*
X543397Y903892D01*
X543221Y904127D01*
X542987Y904537D01*
X542636Y905005D01*
X542343Y905650D01*
X541991Y906294D01*
X541640Y906938D01*
X541347Y907641D01*
X541288Y907700D01*
X541230Y907934D01*
X541113Y908344D01*
X540995Y908812D01*
X540878Y909398D01*
X540761Y910042D01*
X540644Y910687D01*
Y911448D01*
Y911507D01*
Y911565D01*
Y911917D01*
X540703Y912385D01*
X540820Y912971D01*
X540937Y913674D01*
X541171Y914377D01*
X541464Y915080D01*
X541874Y915724D01*
X541933Y915783D01*
X542108Y915958D01*
X542401Y916251D01*
X542753Y916544D01*
X543221Y916778D01*
X543807Y917071D01*
X544451Y917247D01*
X545213Y917306D01*
X545564D01*
X545916Y917247D01*
X546384Y917130D01*
X546911Y916954D01*
X547439Y916720D01*
X548024Y916368D01*
X548551Y915900D01*
X548610Y915841D01*
X548786Y915607D01*
X548961Y915314D01*
X549254Y914846D01*
X549547Y914201D01*
X549898Y913440D01*
X550191Y912503D01*
X550426Y911448D01*
X554936D01*
Y917306D01*
X554877D01*
X554819Y917364D01*
X554409Y917481D01*
X553881Y917716D01*
X553179Y918008D01*
X552417Y918243D01*
X551656Y918536D01*
X550894Y918770D01*
X550191Y919004D01*
X550133D01*
X549898Y919121D01*
X549547Y919180D01*
X549078Y919297D01*
X548610Y919414D01*
X548024Y919531D01*
X546794Y919765D01*
X546736D01*
X546501Y919824D01*
X546150D01*
X545681Y919883D01*
X545154Y919941D01*
X544510D01*
X543807Y920000D01*
X572800D01*
X572098Y919941D01*
X571278Y919883D01*
X570282Y919765D01*
X569286Y919590D01*
X568349Y919355D01*
X567412Y919004D01*
X567295Y918945D01*
X567002Y918828D01*
X566592Y918594D01*
X566123Y918301D01*
X565537Y917950D01*
X565010Y917481D01*
X564483Y916954D01*
X564073Y916368D01*
X564015Y916310D01*
X563897Y916076D01*
X563722Y915724D01*
X563546Y915256D01*
X563370Y914670D01*
X563195Y914025D01*
X563077Y913264D01*
X563019Y912444D01*
Y912385D01*
Y912093D01*
X563077Y911741D01*
X563136Y911214D01*
X563195Y910687D01*
X563312Y910042D01*
X563546Y909398D01*
X563780Y908754D01*
X563839Y908695D01*
X563897Y908461D01*
X564073Y908110D01*
X564366Y907641D01*
X564717Y907055D01*
X565127Y906411D01*
X565654Y905650D01*
X566299Y904888D01*
X566357Y904771D01*
X566650Y904478D01*
X567119Y904010D01*
X567763Y903307D01*
X568583Y902428D01*
X569637Y901374D01*
X570926Y900085D01*
X572390Y898680D01*
X572449Y898621D01*
X572742Y898387D01*
X573093Y897977D01*
X573562Y897508D01*
X574147Y896922D01*
X574733Y896278D01*
X576022Y894872D01*
X576080Y894814D01*
X576315Y894579D01*
X576608Y894228D01*
X576959Y893818D01*
X577720Y892822D01*
X578072Y892354D01*
X578423Y891885D01*
Y891651D01*
X568993D01*
X568642Y891709D01*
X567880Y891768D01*
X567470Y891826D01*
X567177Y891885D01*
X567119D01*
X567060Y891944D01*
X566709Y892061D01*
X566299Y892354D01*
X565889Y892705D01*
X565830Y892822D01*
X565596Y893174D01*
X565362Y893701D01*
X565127Y894462D01*
X562257D01*
X562843Y885559D01*
X585686D01*
Y887199D01*
X585628Y887316D01*
X585511Y887609D01*
X585276Y888137D01*
X584925Y888781D01*
X584515Y889542D01*
X583988Y890421D01*
X583402Y891358D01*
X582699Y892412D01*
Y892471D01*
X582582Y892529D01*
X582523Y892705D01*
X582348Y892881D01*
X581938Y893466D01*
X581352Y894228D01*
X580649Y895165D01*
X579829Y896219D01*
X578892Y897332D01*
X577838Y898562D01*
X577779Y898621D01*
X577720Y898680D01*
X577603Y898855D01*
X577369Y899090D01*
X576900Y899675D01*
X576315Y900378D01*
X575670Y901198D01*
X574967Y902077D01*
X574323Y902955D01*
X573737Y903775D01*
X573679Y903892D01*
X573503Y904127D01*
X573269Y904537D01*
X572918Y905005D01*
X572625Y905650D01*
X572273Y906294D01*
X571922Y906938D01*
X571629Y907641D01*
X571570Y907700D01*
X571512Y907934D01*
X571395Y908344D01*
X571278Y908812D01*
X571160Y909398D01*
X571043Y910042D01*
X570926Y910687D01*
Y911448D01*
Y911507D01*
Y911565D01*
Y911917D01*
X570985Y912385D01*
X571102Y912971D01*
X571219Y913674D01*
X571453Y914377D01*
X571746Y915080D01*
X572156Y915724D01*
X572215Y915783D01*
X572390Y915958D01*
X572683Y916251D01*
X573035Y916544D01*
X573503Y916778D01*
X574089Y917071D01*
X574733Y917247D01*
X575495Y917306D01*
X575846D01*
X576198Y917247D01*
X576666Y917130D01*
X577193Y916954D01*
X577720Y916720D01*
X578306Y916368D01*
X578833Y915900D01*
X578892Y915841D01*
X579068Y915607D01*
X579243Y915314D01*
X579536Y914846D01*
X579829Y914201D01*
X580181Y913440D01*
X580473Y912503D01*
X580708Y911448D01*
X585218D01*
Y917306D01*
X585159D01*
X585101Y917364D01*
X584691Y917481D01*
X584163Y917716D01*
X583461Y918008D01*
X582699Y918243D01*
X581938Y918536D01*
X581176Y918770D01*
X580473Y919004D01*
X580415D01*
X580181Y919121D01*
X579829Y919180D01*
X579361Y919297D01*
X578892Y919414D01*
X578306Y919531D01*
X577076Y919765D01*
X577018D01*
X576783Y919824D01*
X576432D01*
X575963Y919883D01*
X575436Y919941D01*
X574792D01*
X574089Y920000D01*
X602848D01*
X602438Y919941D01*
X601911Y919883D01*
X601325Y919765D01*
X600681Y919648D01*
X599978Y919473D01*
X599275Y919238D01*
X598514Y918945D01*
X597752Y918653D01*
X596991Y918243D01*
X596229Y917716D01*
X595526Y917188D01*
X594882Y916544D01*
X594296Y915783D01*
X594238Y915724D01*
X594179Y915607D01*
X594004Y915373D01*
X593828Y915021D01*
X593594Y914553D01*
X593359Y914025D01*
X593066Y913381D01*
X592774Y912620D01*
X592481Y911800D01*
X592188Y910863D01*
X591954Y909808D01*
X591719Y908637D01*
X591544Y907407D01*
X591368Y906060D01*
X591309Y904595D01*
X591251Y903014D01*
Y902194D01*
X591309Y901550D01*
X591368Y900847D01*
X591426Y899968D01*
X591544Y899031D01*
X591661Y898035D01*
X592012Y895868D01*
X592598Y893642D01*
X592949Y892588D01*
X593418Y891534D01*
X593886Y890538D01*
X594472Y889659D01*
X594531Y889601D01*
X594589Y889484D01*
X594824Y889249D01*
X595058Y888957D01*
X595409Y888605D01*
X595819Y888254D01*
X596288Y887844D01*
X596815Y887434D01*
X597459Y887024D01*
X598162Y886614D01*
X598924Y886262D01*
X599744Y885911D01*
X600681Y885618D01*
X601676Y885384D01*
X602731Y885266D01*
X603844Y885208D01*
X604488D01*
X604840Y885266D01*
X605249Y885325D01*
X606128Y885442D01*
X607182Y885618D01*
X608237Y885911D01*
X609350Y886321D01*
X610404Y886848D01*
X610521Y886906D01*
X610814Y887199D01*
X611282Y887609D01*
X611868Y888195D01*
X612571Y888957D01*
X613215Y889894D01*
X613860Y891006D01*
X614445Y892354D01*
Y892412D01*
X614504Y892529D01*
X614562Y892764D01*
X614680Y893056D01*
X614797Y893408D01*
X614914Y893876D01*
X615031Y894462D01*
X615148Y895048D01*
X615265Y895751D01*
X615382Y896454D01*
X615500Y897274D01*
X615617Y898152D01*
X615734Y899090D01*
X615793Y900085D01*
X615851Y902252D01*
Y903190D01*
X615793Y903717D01*
Y904302D01*
X615734Y904947D01*
X615675Y905591D01*
X615500Y907114D01*
X615265Y908754D01*
X614914Y910394D01*
X614445Y911917D01*
Y911975D01*
X614387Y912093D01*
X614270Y912327D01*
X614152Y912561D01*
X614035Y912913D01*
X613860Y913264D01*
X613332Y914143D01*
X612747Y915138D01*
X612044Y916134D01*
X611165Y917130D01*
X610169Y917950D01*
X610111D01*
X610052Y918067D01*
X609877Y918126D01*
X609642Y918301D01*
X609057Y918594D01*
X608295Y919004D01*
X607299Y919355D01*
X606128Y919707D01*
X604840Y919941D01*
X603434Y920000D01*
X633364D01*
X632661Y919941D01*
D02*
G37*
%LPC*%
G36*
X620025Y985840D02*
X595249D01*
Y977933D01*
X598647D01*
X598705Y978050D01*
X598764Y978343D01*
X598939Y978694D01*
X599115Y979221D01*
X599584Y980275D01*
X599818Y980744D01*
X600052Y981095D01*
Y981154D01*
X600169Y981271D01*
X600462Y981623D01*
X600872Y982033D01*
X601458Y982443D01*
X601517D01*
X601634Y982501D01*
X601809Y982618D01*
X602102Y982677D01*
X602454Y982794D01*
X602922Y982853D01*
X603508Y982911D01*
X609599D01*
Y970962D01*
X605910D01*
X605675Y971021D01*
X605089Y971080D01*
X604562Y971255D01*
X604504D01*
X604445Y971314D01*
X604211Y971548D01*
X603859Y971841D01*
X603508Y972310D01*
Y972368D01*
X603449Y972427D01*
X603332Y972602D01*
X603274Y972837D01*
X603157Y973188D01*
X603039Y973540D01*
X602864Y974008D01*
X602747Y974535D01*
X599935D01*
Y964402D01*
X602747D01*
Y964461D01*
X602805Y964637D01*
X602864Y964930D01*
X602981Y965222D01*
X603215Y965984D01*
X603332Y966335D01*
X603508Y966628D01*
Y966687D01*
X603567Y966745D01*
X603801Y967038D01*
X604152Y967390D01*
X604562Y967682D01*
X604679Y967741D01*
X604972Y967858D01*
X605558Y967975D01*
X606320Y968034D01*
X609599D01*
Y954679D01*
X603625D01*
X603157Y954738D01*
X602688Y954796D01*
X602571D01*
X602337Y954914D01*
X601985Y955031D01*
X601634Y955206D01*
X601575Y955265D01*
X601341Y955441D01*
X601048Y955675D01*
X600755Y955968D01*
X600696Y956027D01*
X600462Y956261D01*
X600228Y956612D01*
X599935Y956964D01*
X599877Y957081D01*
X599701Y957374D01*
X599467Y957842D01*
X599232Y958428D01*
Y958486D01*
X599174Y958604D01*
X599115Y958779D01*
X598998Y959072D01*
X598881Y959424D01*
X598764Y959834D01*
X598588Y960302D01*
X598412Y960888D01*
X594956D01*
X595484Y951809D01*
X620025D01*
Y953449D01*
X619967D01*
X619850Y953508D01*
X619498Y953625D01*
X619030Y953801D01*
X618561Y953976D01*
X618444Y954035D01*
X618210Y954211D01*
X617975Y954445D01*
X617741Y954738D01*
X617682Y954855D01*
X617624Y955089D01*
X617507Y955499D01*
X617448Y956027D01*
Y956085D01*
Y956202D01*
X617390Y956378D01*
Y956612D01*
X617331Y957256D01*
Y958076D01*
Y979573D01*
Y979631D01*
Y979748D01*
Y979983D01*
Y980275D01*
Y980861D01*
X617390Y981506D01*
Y981564D01*
Y981623D01*
X617448Y981974D01*
X617565Y982384D01*
X617741Y982794D01*
X617800Y982911D01*
X617917Y983087D01*
X618151Y983380D01*
X618503Y983614D01*
X618620Y983673D01*
X618913Y983848D01*
X619381Y984024D01*
X620025Y984200D01*
Y985840D01*
D02*
G37*
G36*
X558466D02*
X544643D01*
Y984200D01*
X544877D01*
X545111Y984141D01*
X545346Y984083D01*
X545990Y983848D01*
X546283Y983673D01*
X546576Y983497D01*
X546693Y983380D01*
X546869Y983087D01*
X547044Y982560D01*
X547161Y981857D01*
Y981798D01*
Y981740D01*
Y981330D01*
X547103Y980803D01*
X547044Y980217D01*
Y980158D01*
X546986Y980100D01*
Y979865D01*
X546869Y979631D01*
X546810Y979280D01*
X546693Y978870D01*
X546576Y978343D01*
X546400Y977757D01*
X541480Y959834D01*
X535271Y977698D01*
Y977757D01*
X535213Y977874D01*
X535154Y978050D01*
X535095Y978343D01*
X534920Y978928D01*
X534744Y979631D01*
Y979690D01*
X534685Y979807D01*
Y979983D01*
X534627Y980217D01*
X534568Y980861D01*
X534510Y981564D01*
Y981623D01*
Y981740D01*
X534568Y981974D01*
Y982267D01*
X534803Y982853D01*
X534920Y983146D01*
X535154Y983438D01*
Y983497D01*
X535271Y983556D01*
X535388Y983673D01*
X535623Y983790D01*
X535857Y983907D01*
X536208Y984083D01*
X536618Y984141D01*
X537087Y984200D01*
Y985840D01*
X526310D01*
Y984200D01*
X526485D01*
X526661Y984141D01*
X526895Y984083D01*
X527422Y983907D01*
X527950Y983614D01*
X528067Y983556D01*
X528360Y983263D01*
X528711Y982853D01*
X529121Y982267D01*
Y982208D01*
X529238Y982091D01*
X529355Y981916D01*
X529473Y981564D01*
X529648Y981213D01*
X529883Y980685D01*
X530117Y980158D01*
X530410Y979455D01*
X540835Y951692D01*
X546634D01*
X554893Y979573D01*
Y979631D01*
X554952Y979865D01*
X555069Y980217D01*
X555186Y980627D01*
X555537Y981506D01*
X555654Y981857D01*
X555830Y982208D01*
Y982267D01*
X555889Y982326D01*
X556064Y982677D01*
X556357Y983087D01*
X556767Y983497D01*
X556884Y983556D01*
X557177Y983790D01*
X557704Y983966D01*
X558466Y984200D01*
Y985840D01*
D02*
G37*
G36*
X470666D02*
X456843D01*
Y984200D01*
X457077D01*
X457311Y984141D01*
X457546Y984083D01*
X458190Y983848D01*
X458483Y983673D01*
X458776Y983497D01*
X458893Y983380D01*
X459068Y983087D01*
X459244Y982560D01*
X459361Y981857D01*
Y981798D01*
Y981740D01*
Y981330D01*
X459303Y980803D01*
X459244Y980217D01*
Y980158D01*
X459186Y980100D01*
Y979865D01*
X459068Y979631D01*
X459010Y979280D01*
X458893Y978870D01*
X458776Y978343D01*
X458600Y977757D01*
X453680Y959834D01*
X447471Y977698D01*
Y977757D01*
X447413Y977874D01*
X447354Y978050D01*
X447295Y978343D01*
X447120Y978928D01*
X446944Y979631D01*
Y979690D01*
X446885Y979807D01*
Y979983D01*
X446827Y980217D01*
X446768Y980861D01*
X446710Y981564D01*
Y981623D01*
Y981740D01*
X446768Y981974D01*
Y982267D01*
X447003Y982853D01*
X447120Y983146D01*
X447354Y983438D01*
Y983497D01*
X447471Y983556D01*
X447588Y983673D01*
X447823Y983790D01*
X448057Y983907D01*
X448408Y984083D01*
X448818Y984141D01*
X449287Y984200D01*
Y985840D01*
X438510D01*
Y984200D01*
X438685D01*
X438861Y984141D01*
X439095Y984083D01*
X439622Y983907D01*
X440150Y983614D01*
X440267Y983556D01*
X440560Y983263D01*
X440911Y982853D01*
X441321Y982267D01*
Y982208D01*
X441438Y982091D01*
X441555Y981916D01*
X441673Y981564D01*
X441848Y981213D01*
X442082Y980685D01*
X442317Y980158D01*
X442610Y979455D01*
X453036Y951692D01*
X458834D01*
X467093Y979573D01*
Y979631D01*
X467151Y979865D01*
X467269Y980217D01*
X467386Y980627D01*
X467737Y981506D01*
X467854Y981857D01*
X468030Y982208D01*
Y982267D01*
X468089Y982326D01*
X468264Y982677D01*
X468557Y983087D01*
X468967Y983497D01*
X469084Y983556D01*
X469377Y983790D01*
X469904Y983966D01*
X470666Y984200D01*
Y985840D01*
D02*
G37*
G36*
X590446D02*
X574808D01*
X574163Y985781D01*
X573343Y985723D01*
X572523Y985664D01*
X571703Y985547D01*
X570883Y985430D01*
X570766D01*
X570532Y985371D01*
X570122Y985254D01*
X569653Y985137D01*
X569067Y984961D01*
X568482Y984727D01*
X567252Y984200D01*
X567193Y984141D01*
X567017Y984083D01*
X566783Y983907D01*
X566490Y983731D01*
X565787Y983146D01*
X565084Y982443D01*
X565026Y982384D01*
X564909Y982267D01*
X564733Y982033D01*
X564557Y981740D01*
X564323Y981388D01*
X564089Y980920D01*
X563679Y979924D01*
Y979865D01*
X563620Y979690D01*
X563503Y979397D01*
X563445Y978987D01*
X563327Y978518D01*
X563269Y977933D01*
X563210Y977347D01*
Y976644D01*
Y976527D01*
Y976234D01*
X563269Y975765D01*
X563327Y975238D01*
X563445Y974594D01*
X563562Y973891D01*
X563796Y973188D01*
X564089Y972485D01*
X564147Y972427D01*
X564264Y972192D01*
X564440Y971841D01*
X564674Y971490D01*
X565026Y971021D01*
X565377Y970494D01*
X565846Y970025D01*
X566373Y969557D01*
X566432Y969498D01*
X566666Y969381D01*
X566959Y969147D01*
X567427Y968854D01*
X567955Y968502D01*
X568657Y968151D01*
X569419Y967800D01*
X570298Y967390D01*
Y967155D01*
X570239Y967097D01*
X570005Y966980D01*
X569653Y966804D01*
X569185Y966570D01*
X568716Y966277D01*
X568247Y965925D01*
X567720Y965457D01*
X567252Y964988D01*
X567193Y964930D01*
X567017Y964754D01*
X566783Y964461D01*
X566490Y964051D01*
X566139Y963582D01*
X565787Y962997D01*
X565377Y962352D01*
X565026Y961591D01*
X563445Y958194D01*
X563386Y958076D01*
X563269Y957842D01*
X563035Y957432D01*
X562800Y956964D01*
X562156Y955851D01*
X561746Y955265D01*
X561395Y954796D01*
X561336Y954738D01*
X561219Y954621D01*
X560984Y954445D01*
X560692Y954211D01*
X560340Y953976D01*
X559930Y953742D01*
X559462Y953566D01*
X558934Y953449D01*
Y951809D01*
X568540D01*
X568599Y951926D01*
X568775Y952161D01*
X569067Y952629D01*
X569477Y953274D01*
X569946Y954152D01*
X570532Y955148D01*
X571118Y956319D01*
X571820Y957725D01*
X573753Y962001D01*
X573812Y962059D01*
X573870Y962294D01*
X574046Y962645D01*
X574280Y963055D01*
X574749Y963934D01*
X575042Y964344D01*
X575276Y964695D01*
Y964754D01*
X575393Y964812D01*
X575628Y965164D01*
X576038Y965515D01*
X576565Y965808D01*
X576682Y965867D01*
X576858Y965925D01*
X577033Y965984D01*
X577326D01*
X577678Y966042D01*
X578088Y966101D01*
X580020D01*
Y958076D01*
Y958018D01*
Y957784D01*
Y957432D01*
Y957022D01*
X579962Y956202D01*
X579903Y955792D01*
X579845Y955441D01*
Y955382D01*
X579786Y955324D01*
X579669Y955031D01*
X579493Y954621D01*
X579201Y954211D01*
X579083Y954152D01*
X578966Y954094D01*
X578791Y953976D01*
X578498Y953859D01*
X578205Y953742D01*
X577795Y953566D01*
X577326Y953449D01*
Y951809D01*
X590446D01*
Y953449D01*
X590388D01*
X590271Y953508D01*
X589919Y953625D01*
X589451Y953801D01*
X588982Y953976D01*
X588865Y954035D01*
X588631Y954211D01*
X588396Y954445D01*
X588162Y954738D01*
X588103Y954855D01*
X588045Y955089D01*
X587928Y955499D01*
X587869Y956027D01*
Y956085D01*
Y956202D01*
X587811Y956378D01*
Y956612D01*
X587752Y957256D01*
Y958076D01*
Y979573D01*
Y979631D01*
Y979748D01*
Y979983D01*
Y980275D01*
Y980861D01*
X587811Y981506D01*
Y981564D01*
Y981623D01*
X587869Y981974D01*
X587986Y982384D01*
X588162Y982794D01*
X588221Y982911D01*
X588338Y983087D01*
X588572Y983380D01*
X588923Y983614D01*
X589041Y983673D01*
X589333Y983848D01*
X589802Y984024D01*
X590446Y984200D01*
Y985840D01*
D02*
G37*
G36*
X524142D02*
X511022D01*
Y984200D01*
X511081D01*
X511198Y984141D01*
X511374Y984083D01*
X511608Y984024D01*
X512076Y983848D01*
X512545Y983614D01*
X512604Y983556D01*
X512779Y983438D01*
X513014Y983146D01*
X513248Y982853D01*
X513307Y982794D01*
X513365Y982560D01*
X513482Y982208D01*
X513599Y981681D01*
Y981623D01*
Y981564D01*
X513658Y981388D01*
Y981154D01*
Y980861D01*
X513717Y980510D01*
Y980041D01*
Y979573D01*
Y958076D01*
Y958018D01*
Y957901D01*
Y957784D01*
Y957549D01*
Y957022D01*
X513658Y956436D01*
Y956378D01*
Y956319D01*
X513599Y956027D01*
X513541Y955617D01*
X513482Y955206D01*
X513424Y955148D01*
X513365Y954914D01*
X513189Y954679D01*
X513014Y954386D01*
X512955Y954328D01*
X512779Y954211D01*
X512545Y954035D01*
X512252Y953859D01*
X512135Y953801D01*
X511901Y953742D01*
X511491Y953566D01*
X511022Y953449D01*
Y951809D01*
X524142D01*
Y953449D01*
X524084D01*
X523967Y953508D01*
X523615Y953625D01*
X523147Y953801D01*
X522678Y953976D01*
X522561Y954035D01*
X522327Y954211D01*
X522092Y954445D01*
X521858Y954738D01*
X521800Y954855D01*
X521741Y955089D01*
X521624Y955499D01*
X521565Y956027D01*
Y956085D01*
Y956202D01*
X521507Y956378D01*
Y956612D01*
X521448Y957256D01*
Y958076D01*
Y979573D01*
Y979631D01*
Y979807D01*
Y979983D01*
Y980275D01*
Y980920D01*
X521507Y981564D01*
Y981623D01*
Y981681D01*
X521565Y982033D01*
X521682Y982443D01*
X521858Y982853D01*
X521917Y982970D01*
X522034Y983146D01*
X522268Y983438D01*
X522620Y983673D01*
X522737Y983731D01*
X523030Y983848D01*
X523498Y984024D01*
X524142Y984200D01*
Y985840D01*
D02*
G37*
%LPD*%
G36*
X580020Y969029D02*
X577209D01*
X576858Y969088D01*
X576389D01*
X575862Y969147D01*
X575335Y969264D01*
X574808Y969381D01*
X574280Y969557D01*
X574222D01*
X574046Y969674D01*
X573812Y969791D01*
X573519Y969967D01*
X572816Y970377D01*
X572172Y971021D01*
X572113Y971080D01*
X572055Y971197D01*
X571937Y971431D01*
X571762Y971665D01*
X571586Y972017D01*
X571410Y972427D01*
X571118Y973305D01*
Y973364D01*
X571059Y973540D01*
X571000Y973774D01*
X570942Y974125D01*
Y974594D01*
X570883Y975062D01*
X570825Y976175D01*
Y976234D01*
Y976351D01*
Y976527D01*
Y976761D01*
X570883Y977347D01*
X571000Y978108D01*
X571235Y978928D01*
X571527Y979748D01*
X571937Y980510D01*
X572465Y981213D01*
X572523Y981271D01*
X572757Y981506D01*
X573109Y981740D01*
X573636Y982091D01*
X574339Y982384D01*
X575159Y982677D01*
X576096Y982853D01*
X577209Y982911D01*
X580020D01*
Y969029D01*
D02*
G37*
D17*
X100045Y793371D02*
X101712Y795037D01*
X105044D01*
X106710Y793371D01*
Y786706D01*
X105044Y785040D01*
X101712D01*
X100045Y786706D01*
Y790038D01*
X103378D01*
X96713Y785040D02*
Y795037D01*
X90049Y785040D01*
Y795037D01*
X86716D02*
Y785040D01*
X81718D01*
X80052Y786706D01*
Y793371D01*
X81718Y795037D01*
X86716D01*
X102545Y593121D02*
X104212Y594787D01*
X107544D01*
X109210Y593121D01*
Y586456D01*
X107544Y584790D01*
X104212D01*
X102545Y586456D01*
Y589788D01*
X105878D01*
X99213Y584790D02*
Y594787D01*
X92549Y584790D01*
Y594787D01*
X89216D02*
Y584790D01*
X84218D01*
X82552Y586456D01*
Y593121D01*
X84218Y594787D01*
X89216D01*
X101046Y488371D02*
X102712Y490037D01*
X106044D01*
X107710Y488371D01*
Y481706D01*
X106044Y480040D01*
X102712D01*
X101046Y481706D01*
Y485038D01*
X104378D01*
X97713Y480040D02*
Y490037D01*
X91049Y480040D01*
Y490037D01*
X87716D02*
Y480040D01*
X82718D01*
X81052Y481706D01*
Y488371D01*
X82718Y490037D01*
X87716D01*
X91295Y390621D02*
X92962Y392287D01*
X96294D01*
X97960Y390621D01*
Y383956D01*
X96294Y382290D01*
X92962D01*
X91295Y383956D01*
Y387288D01*
X94628D01*
X87963Y382290D02*
Y392287D01*
X81299Y382290D01*
Y392287D01*
X77966D02*
Y382290D01*
X72968D01*
X71302Y383956D01*
Y390621D01*
X72968Y392287D01*
X77966D01*
X67525Y366540D02*
X52290D01*
X57368D01*
X67525Y376697D01*
X59907Y369079D01*
X52290Y376697D01*
X62447Y384314D02*
Y389393D01*
X59907Y391932D01*
X52290D01*
Y384314D01*
X54829Y381775D01*
X57368Y384314D01*
Y391932D01*
X52290Y397010D02*
X62447D01*
Y399549D01*
X59907Y402089D01*
X52290D01*
X59907D01*
X62447Y404628D01*
X59907Y407167D01*
X52290D01*
Y419863D02*
Y414784D01*
X54829Y412245D01*
X59907D01*
X62447Y414784D01*
Y419863D01*
X59907Y422402D01*
X57368D01*
Y412245D01*
X62447Y427480D02*
X52290D01*
X57368D01*
X59907Y430019D01*
X62447Y432559D01*
Y435098D01*
Y445255D02*
Y450333D01*
X59907Y452872D01*
X52290D01*
Y445255D01*
X54829Y442715D01*
X57368Y445255D01*
Y452872D01*
X52290Y468107D02*
Y457950D01*
X62447Y468107D01*
X64986D01*
X67525Y465568D01*
Y460490D01*
X64986Y457950D01*
X89045Y184121D02*
X90712Y185787D01*
X94044D01*
X95710Y184121D01*
Y177456D01*
X94044Y175790D01*
X90712D01*
X89045Y177456D01*
Y180788D01*
X92378D01*
X85713Y175790D02*
Y185787D01*
X79049Y175790D01*
Y185787D01*
X75716D02*
Y175790D01*
X70718D01*
X69052Y177456D01*
Y184121D01*
X70718Y185787D01*
X75716D01*
X87045Y286371D02*
X88712Y288037D01*
X92044D01*
X93710Y286371D01*
Y279706D01*
X92044Y278040D01*
X88712D01*
X87045Y279706D01*
Y283038D01*
X90378D01*
X83713Y278040D02*
Y288037D01*
X77049Y278040D01*
Y288037D01*
X73716D02*
Y278040D01*
X68718D01*
X67052Y279706D01*
Y286371D01*
X68718Y288037D01*
X73716D01*
X73103Y588290D02*
X57868D01*
X62947D01*
X73103Y598447D01*
X65486Y590829D01*
X57868Y598447D01*
X68025Y606064D02*
Y611143D01*
X65486Y613682D01*
X57868D01*
Y606064D01*
X60408Y603525D01*
X62947Y606064D01*
Y613682D01*
X68025Y618760D02*
X60408D01*
X57868Y621299D01*
Y628917D01*
X55329D01*
X52790Y626378D01*
Y623839D01*
X57868Y628917D02*
X68025D01*
X57868Y633995D02*
Y639074D01*
Y636534D01*
X68025D01*
Y633995D01*
X70564Y649230D02*
X68025D01*
Y646691D01*
Y651769D01*
Y649230D01*
X60408D01*
X57868Y651769D01*
X65525Y256540D02*
X50290D01*
X55368D01*
X65525Y266697D01*
X57908Y259079D01*
X50290Y266697D01*
X60447Y274314D02*
Y279393D01*
X57908Y281932D01*
X50290D01*
Y274314D01*
X52829Y271775D01*
X55368Y274314D01*
Y281932D01*
X50290Y287010D02*
X60447D01*
Y289549D01*
X57908Y292089D01*
X50290D01*
X57908D01*
X60447Y294628D01*
X57908Y297167D01*
X50290D01*
Y309863D02*
Y304784D01*
X52829Y302245D01*
X57908D01*
X60447Y304784D01*
Y309863D01*
X57908Y312402D01*
X55368D01*
Y302245D01*
X60447Y317480D02*
X50290D01*
X55368D01*
X57908Y320019D01*
X60447Y322559D01*
Y325098D01*
Y335255D02*
Y340333D01*
X57908Y342872D01*
X50290D01*
Y335255D01*
X52829Y332715D01*
X55368Y335255D01*
Y342872D01*
X62986Y347950D02*
X65525Y350490D01*
Y355568D01*
X62986Y358107D01*
X60447D01*
X57908Y355568D01*
Y353029D01*
Y355568D01*
X55368Y358107D01*
X52829D01*
X50290Y355568D01*
Y350490D01*
X52829Y347950D01*
X66986Y982197D02*
X69525Y979658D01*
Y974579D01*
X66986Y972040D01*
X56829D01*
X54290Y974579D01*
Y979658D01*
X56829Y982197D01*
X61908D01*
Y977118D01*
X54290Y987275D02*
X69525D01*
X54290Y997432D01*
X69525D01*
Y1002510D02*
X54290D01*
Y1010128D01*
X56829Y1012667D01*
X66986D01*
X69525Y1010128D01*
Y1002510D01*
X59158Y1020540D02*
Y1030697D01*
X64236Y1025618D02*
X54079D01*
X51540Y1035775D02*
Y1040853D01*
Y1038314D01*
X66775D01*
X64236Y1035775D01*
X51540Y1058628D02*
Y1048471D01*
X61697Y1058628D01*
X64236D01*
X66775Y1056088D01*
Y1051010D01*
X64236Y1048471D01*
X66775Y1063706D02*
X56618D01*
X51540Y1068784D01*
X56618Y1073863D01*
X66775D01*
X70025Y876540D02*
X54790D01*
X59868D01*
X70025Y886697D01*
X62408Y879079D01*
X54790Y886697D01*
Y894314D02*
Y899393D01*
X57329Y901932D01*
X62408D01*
X64947Y899393D01*
Y894314D01*
X62408Y891775D01*
X57329D01*
X54790Y894314D01*
Y907010D02*
X64947D01*
Y914628D01*
X62408Y917167D01*
X54790D01*
X67486Y924784D02*
X64947D01*
Y922245D01*
Y927324D01*
Y924784D01*
X57329D01*
X54790Y927324D01*
X64947Y937480D02*
Y942559D01*
X62408Y945098D01*
X54790D01*
Y937480D01*
X57329Y934941D01*
X59868Y937480D01*
Y945098D01*
X54790Y950176D02*
X70025D01*
X59868D02*
X64947Y957794D01*
X59868Y950176D02*
X54790Y957794D01*
X69775Y781290D02*
X54540D01*
X59618D01*
X69775Y791447D01*
X62158Y783829D01*
X54540Y791447D01*
Y799064D02*
Y804143D01*
X57079Y806682D01*
X62158D01*
X64697Y804143D01*
Y799064D01*
X62158Y796525D01*
X57079D01*
X54540Y799064D01*
X64697Y811760D02*
X54540D01*
X59618D01*
X62158Y814299D01*
X64697Y816839D01*
Y819378D01*
X54540Y826995D02*
X64697D01*
Y834613D01*
X62158Y837152D01*
X54540D01*
X64697Y844770D02*
Y849848D01*
X62158Y852387D01*
X54540D01*
Y844770D01*
X57079Y842230D01*
X59618Y844770D01*
Y852387D01*
X71025Y675040D02*
X55790D01*
Y682657D01*
X58329Y685197D01*
X68486D01*
X71025Y682657D01*
Y675040D01*
X55790Y692814D02*
Y697893D01*
X58329Y700432D01*
X63408D01*
X65947Y697893D01*
Y692814D01*
X63408Y690275D01*
X58329D01*
X55790Y692814D01*
X65947Y705510D02*
X55790D01*
X60868D01*
X63408Y708049D01*
X65947Y710589D01*
Y713128D01*
X68486Y723284D02*
X65947D01*
Y720745D01*
Y725824D01*
Y723284D01*
X58329D01*
X55790Y725824D01*
Y733441D02*
Y738520D01*
Y735980D01*
X71025D01*
Y733441D01*
X65947Y746137D02*
X58329D01*
X55790Y748676D01*
Y756294D01*
X65947D01*
X73275Y479790D02*
X58040D01*
X63118D01*
X73275Y489947D01*
X65658Y482329D01*
X58040Y489947D01*
X68197Y497564D02*
Y502643D01*
X65658Y505182D01*
X58040D01*
Y497564D01*
X60579Y495025D01*
X63118Y497564D01*
Y505182D01*
X58040Y510260D02*
X68197D01*
Y512799D01*
X65658Y515339D01*
X58040D01*
X65658D01*
X68197Y517878D01*
X65658Y520417D01*
X58040D01*
Y533113D02*
Y528034D01*
X60579Y525495D01*
X65658D01*
X68197Y528034D01*
Y533113D01*
X65658Y535652D01*
X63118D01*
Y525495D01*
X68197Y540730D02*
X58040D01*
X63118D01*
X65658Y543269D01*
X68197Y545809D01*
Y548348D01*
Y558504D02*
Y563583D01*
X65658Y566122D01*
X58040D01*
Y558504D01*
X60579Y555965D01*
X63118Y558504D01*
Y566122D01*
X58040Y571200D02*
Y576279D01*
Y573740D01*
X73275D01*
X70736Y571200D01*
X48290Y154040D02*
X63525D01*
X58447Y159118D01*
X63525Y164197D01*
X48290D01*
Y171814D02*
Y176893D01*
X50829Y179432D01*
X55908D01*
X58447Y176893D01*
Y171814D01*
X55908Y169275D01*
X50829D01*
X48290Y171814D01*
Y184510D02*
X58447D01*
Y192128D01*
X55908Y194667D01*
X48290D01*
Y199745D02*
Y204823D01*
Y202284D01*
X58447D01*
Y199745D01*
X60986Y214980D02*
X58447D01*
Y212441D01*
Y217519D01*
Y214980D01*
X50829D01*
X48290Y217519D01*
Y227676D02*
Y232754D01*
X50829Y235294D01*
X55908D01*
X58447Y232754D01*
Y227676D01*
X55908Y225137D01*
X50829D01*
X48290Y227676D01*
X58447Y240372D02*
X48290D01*
X53368D01*
X55908Y242911D01*
X58447Y245450D01*
Y247990D01*
M02*
