G04*
G04 #@! TF.GenerationSoftware,Altium Limited,Altium Designer,22.9.1 (49)*
G04*
G04 Layer_Color=255*
%FSLAX44Y44*%
%MOMM*%
G71*
G04*
G04 #@! TF.SameCoordinates,3AF70149-3D4E-492E-B143-9ECFE05FD8F5*
G04*
G04*
G04 #@! TF.FilePolarity,Positive*
G04*
G01*
G75*
%ADD30C,3.5000*%
%ADD72R,2.2000X2.2000*%
%ADD73O,3.1000X1.5500*%
%ADD74O,2.1000X4.2000*%
%ADD75C,3.3160*%
%ADD76C,1.4080*%
%ADD77R,1.4080X1.4080*%
%ADD78R,3.5000X3.5000*%
%ADD79C,4.0000*%
%ADD80C,1.0070*%
%ADD81O,4.0000X3.0000*%
%ADD82R,4.0000X3.0000*%
%ADD83R,2.1000X2.1000*%
%ADD84C,2.1000*%
%ADD85C,2.0000*%
D30*
X129768Y851656D02*
D03*
Y800856D02*
D03*
Y902456D02*
D03*
X799000Y890000D02*
D03*
X798906Y189614D02*
D03*
X99000Y190000D02*
D03*
D72*
X19000Y128000D02*
D03*
X20000Y45000D02*
D03*
D73*
X91000Y87000D02*
D03*
D74*
X46000D02*
D03*
D75*
X872768Y139456D02*
D03*
Y19056D02*
D03*
D76*
X845768Y91756D02*
D03*
Y66756D02*
D03*
X825768D02*
D03*
D77*
Y91756D02*
D03*
D78*
X129768Y953256D02*
D03*
D79*
X719768Y747056D02*
D03*
Y1007056D02*
D03*
X124768D02*
D03*
Y747056D02*
D03*
D80*
X489268Y467656D02*
D03*
Y418856D02*
D03*
X197768Y97356D02*
D03*
Y146156D02*
D03*
D81*
X876018Y191006D02*
D03*
Y1003806D02*
D03*
Y851406D02*
D03*
Y902206D02*
D03*
Y953006D02*
D03*
Y800606D02*
D03*
Y445006D02*
D03*
Y699006D02*
D03*
Y648206D02*
D03*
Y394206D02*
D03*
Y241806D02*
D03*
Y597406D02*
D03*
Y343406D02*
D03*
Y546606D02*
D03*
Y749806D02*
D03*
Y292606D02*
D03*
Y495806D02*
D03*
X23268Y488156D02*
D03*
Y284956D02*
D03*
Y742156D02*
D03*
Y538956D02*
D03*
Y335756D02*
D03*
Y589756D02*
D03*
Y234156D02*
D03*
Y386556D02*
D03*
Y640556D02*
D03*
Y691356D02*
D03*
Y437356D02*
D03*
Y792956D02*
D03*
Y945356D02*
D03*
Y894556D02*
D03*
Y843756D02*
D03*
Y996156D02*
D03*
Y183356D02*
D03*
D82*
X876018Y1054606D02*
D03*
X23268Y1046956D02*
D03*
D83*
X655000Y69000D02*
D03*
D84*
Y141000D02*
D03*
D85*
X152768Y233256D02*
D03*
X347768Y308256D02*
D03*
X312768Y233256D02*
D03*
X382768D02*
D03*
X152768Y308256D02*
D03*
Y353256D02*
D03*
X347768Y428256D02*
D03*
X312768Y353256D02*
D03*
X382768D02*
D03*
X152768Y428256D02*
D03*
Y472756D02*
D03*
X347768Y547756D02*
D03*
X312768Y472756D02*
D03*
X382768D02*
D03*
X152768Y547756D02*
D03*
M02*
