G04*
G04 #@! TF.GenerationSoftware,Altium Limited,Altium Designer,22.9.1 (49)*
G04*
G04 Layer_Color=16711935*
%FSLAX44Y44*%
%MOMM*%
G71*
G04*
G04 #@! TF.SameCoordinates,3AF70149-3D4E-492E-B143-9ECFE05FD8F5*
G04*
G04*
G04 #@! TF.FilePolarity,Positive*
G04*
G01*
G75*
%ADD11C,0.1000*%
%ADD12C,0.2000*%
%ADD14C,0.1270*%
G36*
X634675Y252656D02*
Y264869D01*
X652268D01*
Y252656D01*
X634675D01*
D02*
G37*
G36*
X634737Y278056D02*
Y290310D01*
X652268D01*
Y278056D01*
X634737D01*
D02*
G37*
G36*
X634755Y303456D02*
Y315715D01*
X652268D01*
Y303456D01*
X634755D01*
D02*
G37*
G36*
X716292Y252806D02*
Y265042D01*
X733768D01*
Y252806D01*
X716292D01*
D02*
G37*
G36*
X716300Y278206D02*
Y290462D01*
X733768D01*
Y278206D01*
X716300D01*
D02*
G37*
G36*
X716303Y303606D02*
Y315890D01*
X733768D01*
Y303606D01*
X716303D01*
D02*
G37*
D11*
X758568Y375517D02*
Y515517D01*
X618568Y375517D02*
X758568D01*
X618568D02*
Y515517D01*
X758568D01*
X753568D02*
X758568Y510517D01*
X475768Y197756D02*
Y213756D01*
Y197756D02*
X507768D01*
Y213756D01*
X475768D02*
X507768D01*
X522268Y403256D02*
X538268D01*
Y435256D01*
X522268D02*
X538268D01*
X522268Y403256D02*
Y435256D01*
Y479256D02*
X538268D01*
X522268Y447256D02*
Y479256D01*
Y447256D02*
X538268D01*
Y479256D01*
X494268Y579756D02*
Y595756D01*
Y579756D02*
X526268D01*
Y595756D01*
X494268D02*
X526268D01*
X494268Y557756D02*
Y573756D01*
Y557756D02*
X526268D01*
Y573756D01*
X494268D02*
X526268D01*
X494268Y534756D02*
Y550756D01*
Y534756D02*
X526268D01*
Y550756D01*
X494268D02*
X526268D01*
X299768Y110756D02*
X315768D01*
Y142756D01*
X299768D02*
X315768D01*
X299768Y110756D02*
Y142756D01*
X239768Y130756D02*
X255768D01*
Y162756D01*
X239768D02*
X255768D01*
X239768Y130756D02*
Y162756D01*
Y117756D02*
X255768D01*
X239768Y85756D02*
Y117756D01*
Y85756D02*
X255768D01*
Y117756D01*
X118518Y491256D02*
Y507256D01*
X87018D02*
X118518D01*
X87018Y491256D02*
Y507256D01*
Y491256D02*
X118518D01*
Y521256D02*
Y537256D01*
X87018D02*
X118518D01*
X87018Y521256D02*
Y537256D01*
Y521256D02*
X118518D01*
X113268Y244256D02*
Y260256D01*
X81768D02*
X113268D01*
X81768Y244256D02*
Y260256D01*
Y244256D02*
X113268D01*
X314500Y162750D02*
Y178750D01*
X283000D02*
X314500D01*
X283000Y162750D02*
Y178750D01*
Y162750D02*
X314500D01*
X113268Y274256D02*
Y290256D01*
X81768D02*
X113268D01*
X81768Y274256D02*
Y290256D01*
Y274256D02*
X113268D01*
X135750Y9000D02*
Y25000D01*
X104250D02*
X135750D01*
X104250Y9000D02*
Y25000D01*
Y9000D02*
X135750D01*
X641768Y615756D02*
Y631756D01*
Y615756D02*
X673268D01*
Y631756D01*
X641768D02*
X673268D01*
X641768Y592756D02*
Y608756D01*
Y592756D02*
X673268D01*
Y608756D01*
X641768D02*
X673268D01*
X474668Y236756D02*
Y252756D01*
Y236756D02*
X506168D01*
Y252756D01*
X474668D02*
X506168D01*
X624750Y616000D02*
Y632000D01*
X593250D02*
X624750D01*
X593250Y616000D02*
Y632000D01*
Y616000D02*
X624750D01*
X502518Y308756D02*
Y324756D01*
X471018D02*
X502518D01*
X471018Y308756D02*
Y324756D01*
Y308756D02*
X502518D01*
X465925Y156256D02*
Y172256D01*
Y156256D02*
X497425D01*
Y172256D01*
X465925D02*
X497425D01*
X717000Y90750D02*
X733000D01*
X717000Y59250D02*
Y90750D01*
Y59250D02*
X733000D01*
Y90750D01*
X465925Y48756D02*
Y64756D01*
Y48756D02*
X497425D01*
Y64756D01*
X465925D02*
X497425D01*
X502518Y329756D02*
Y345756D01*
X471018D02*
X502518D01*
X471018Y329756D02*
Y345756D01*
Y329756D02*
X502518D01*
X624018Y189256D02*
Y205256D01*
Y189256D02*
X655518D01*
Y205256D01*
X624018D02*
X655518D01*
X750268Y285006D02*
X766268D01*
X750268Y253506D02*
Y285006D01*
Y253506D02*
X766268D01*
Y285006D01*
X606268Y281506D02*
X622268D01*
Y313006D01*
X606268D02*
X622268D01*
X606268Y281506D02*
Y313006D01*
X497425Y90806D02*
Y106806D01*
X465925D02*
X497425D01*
X465925Y90806D02*
Y106806D01*
Y90806D02*
X497425D01*
Y113756D02*
Y129756D01*
X465925D02*
X497425D01*
X465925Y113756D02*
Y129756D01*
Y113756D02*
X497425D01*
X113518Y395256D02*
Y411256D01*
X82018D02*
X113518D01*
X82018Y395256D02*
Y411256D01*
Y395256D02*
X113518D01*
X113518Y365256D02*
Y381256D01*
X82018D02*
X113518D01*
X82018Y365256D02*
Y381256D01*
Y365256D02*
X113518D01*
X809518Y386256D02*
Y402256D01*
Y386256D02*
X841018D01*
Y402256D01*
X809518D02*
X841018D01*
X809518Y591256D02*
Y607256D01*
Y591256D02*
X841018D01*
Y607256D01*
X809518D02*
X841018D01*
X809518Y438756D02*
Y454756D01*
Y438756D02*
X841018D01*
Y454756D01*
X809518D02*
X841018D01*
X809518Y487456D02*
Y503456D01*
Y487456D02*
X841018D01*
Y503456D01*
X809518D02*
X841018D01*
X809518Y336256D02*
Y352256D01*
Y336256D02*
X841018D01*
Y352256D01*
X809518D02*
X841018D01*
X809518Y691256D02*
Y707256D01*
Y691256D02*
X841018D01*
Y707256D01*
X809518D02*
X841018D01*
X809518Y538756D02*
Y554756D01*
Y538756D02*
X841018D01*
Y554756D01*
X809518D02*
X841018D01*
X809518Y286256D02*
Y302256D01*
Y286256D02*
X841018D01*
Y302256D01*
X809518D02*
X841018D01*
X809518Y741256D02*
Y757256D01*
Y741256D02*
X841018D01*
Y757256D01*
X809518D02*
X841018D01*
X809250Y770000D02*
Y786000D01*
Y770000D02*
X840750D01*
Y786000D01*
X809250D02*
X840750D01*
X809250Y796000D02*
Y812000D01*
Y796000D02*
X840750D01*
Y812000D01*
X809250D02*
X840750D01*
X809250Y949000D02*
Y965000D01*
Y949000D02*
X840750D01*
Y965000D01*
X809250D02*
X840750D01*
X808250Y975000D02*
Y991000D01*
Y975000D02*
X839750D01*
Y991000D01*
X808250D02*
X839750D01*
X809250Y1014000D02*
Y1030000D01*
Y1014000D02*
X840750D01*
Y1030000D01*
X809250D02*
X840750D01*
X809518Y1046256D02*
Y1062256D01*
Y1046256D02*
X841018D01*
Y1062256D01*
X809518D02*
X841018D01*
X809518Y641256D02*
Y657256D01*
Y641256D02*
X841018D01*
Y657256D01*
X809518D02*
X841018D01*
X814768Y18756D02*
X976768D01*
Y139756D01*
X814768D02*
X976768D01*
X814768Y18756D02*
Y139756D01*
X474768Y304256D02*
X504768D01*
Y289256D02*
Y304256D01*
X474768Y289256D02*
X504768D01*
X474768D02*
Y304256D01*
X473768Y365256D02*
X503768D01*
Y350256D02*
Y365256D01*
X473768Y350256D02*
X503768D01*
X473768D02*
Y365256D01*
X467768Y71756D02*
X497768D01*
X467768D02*
Y86756D01*
X497768D01*
Y71756D02*
Y86756D01*
X467768Y134256D02*
X497768D01*
X467768D02*
Y149256D01*
X497768D01*
Y134256D02*
Y149256D01*
X112018Y470256D02*
X124018D01*
X112018D02*
Y478256D01*
X124018D01*
Y470256D02*
Y478256D01*
X120168Y470256D02*
X124018Y474106D01*
X106768Y339256D02*
X118768D01*
X106768D02*
Y347256D01*
X118768D01*
Y339256D02*
Y347256D01*
X114918Y339256D02*
X118768Y343106D01*
X109000Y226000D02*
X121000D01*
X109000D02*
Y234000D01*
X121000D01*
Y226000D02*
Y234000D01*
X117150Y226000D02*
X121000Y229850D01*
D12*
X46900Y142130D02*
G03*
X46900Y142130I-1000J0D01*
G01*
X826768Y146756D02*
G03*
X826768Y146756I-1000J0D01*
G01*
X91809Y546256D02*
G03*
X91809Y546256I-1000J0D01*
G01*
X682518Y597756D02*
G03*
X682518Y597756I-1000J0D01*
G01*
X595518Y578756D02*
G03*
X595518Y578756I-1000J0D01*
G01*
X670768Y191356D02*
G03*
X670768Y191356I-1000J0D01*
G01*
X86559Y300056D02*
G03*
X86559Y300056I-1000J0D01*
G01*
Y425256D02*
G03*
X86559Y425256I-1000J0D01*
G01*
X131338Y763636D02*
G03*
X131338Y763636I-1000J0D01*
G01*
X129458Y990476D02*
G03*
X129458Y990476I-1000J0D01*
G01*
X876078Y1117226D02*
G03*
X876078Y1117226I-1000J0D01*
G01*
X23328Y1109576D02*
G03*
X23328Y1109576I-1000J0D01*
G01*
X361268Y164306D02*
G03*
X361268Y164306I-1000J0D01*
G01*
X533768Y256756D02*
X595768D01*
Y194756D02*
Y256756D01*
X533768Y194756D02*
X595768D01*
X533768D02*
Y256756D01*
D14*
X-89000Y51400D02*
G03*
X-83100Y45500I5900J0D01*
G01*
X-85100Y128500D02*
G03*
X-89000Y124600I0J-3900D01*
G01*
X489268Y385756D02*
G03*
X514268Y410756I0J25000D01*
G01*
X464268D02*
G03*
X489268Y385756I25000J0D01*
G01*
X514268Y475756D02*
G03*
X489268Y500756I-25000J0D01*
G01*
D02*
G03*
X464268Y475756I0J-25000D01*
G01*
X197768Y179256D02*
G03*
X172768Y154256I0J-25000D01*
G01*
X222768D02*
G03*
X197768Y179256I-25000J0D01*
G01*
X172768Y89256D02*
G03*
X197768Y64256I25000J0D01*
G01*
D02*
G03*
X222768Y89256I0J25000D01*
G01*
X21000Y37000D02*
X106000D01*
X6000D02*
X21000D01*
X6000D02*
Y45500D01*
Y52000D01*
Y122000D01*
Y128500D01*
Y137000D01*
X21000D01*
X106000D01*
Y107000D02*
Y137000D01*
X102000Y107000D02*
X106000D01*
X102000Y67000D02*
Y107000D01*
Y67000D02*
X106000D01*
Y37000D02*
Y67000D01*
X21000Y37000D02*
Y51750D01*
X6000Y52000D02*
X21000D01*
X6000Y122000D02*
X21000D01*
Y137000D01*
X-83100Y45500D02*
X6000D01*
X-89000Y51400D02*
Y124600D01*
X-85100Y128500D02*
X6000D01*
X122809Y552256D02*
Y566256D01*
X92809D02*
X122809D01*
X92809Y552256D02*
Y566256D01*
Y552256D02*
X122809D01*
X713518Y603756D02*
Y617756D01*
X683518D02*
X713518D01*
X683518Y603756D02*
Y617756D01*
Y603756D02*
X713518D01*
X626518Y584756D02*
Y598756D01*
X596518D02*
X626518D01*
X596518Y584756D02*
Y598756D01*
Y584756D02*
X626518D01*
X701768Y197356D02*
Y211356D01*
X671768D02*
X701768D01*
X671768Y197356D02*
Y211356D01*
Y197356D02*
X701768D01*
X117559Y306056D02*
Y320056D01*
X87559D02*
X117559D01*
X87559Y306056D02*
Y320056D01*
Y306056D02*
X117559D01*
Y431256D02*
Y445256D01*
X87559D02*
X117559D01*
X87559Y431256D02*
Y445256D01*
Y431256D02*
X117559D01*
X109398Y770456D02*
Y877056D01*
X229398D01*
Y770456D02*
Y877056D01*
X109398Y770456D02*
X229398D01*
X149398Y877056D02*
Y983656D01*
X29398Y877056D02*
X149398D01*
X29398D02*
Y983656D01*
X149398D01*
X514268Y410756D02*
Y475756D01*
X464268Y410756D02*
Y475756D01*
X172768Y89256D02*
Y154256D01*
X222768Y89256D02*
Y154256D01*
X896018Y1003806D02*
Y1110406D01*
X776018Y1003806D02*
X896018D01*
X776018D02*
Y1110406D01*
X896018D01*
X-76732Y1102756D02*
X43268D01*
X-76732Y996156D02*
Y1102756D01*
Y996156D02*
X43268D01*
Y1102756D01*
X368268Y56756D02*
X407268D01*
Y156756D01*
X368268D02*
X407268D01*
X368268Y56756D02*
Y156756D01*
M02*
