G04*
G04 #@! TF.GenerationSoftware,Altium Limited,Altium Designer,22.9.1 (49)*
G04*
G04 Layer_Color=32768*
%FSLAX44Y44*%
%MOMM*%
G71*
G04*
G04 #@! TF.SameCoordinates,3AF70149-3D4E-492E-B143-9ECFE05FD8F5*
G04*
G04*
G04 #@! TF.FilePolarity,Positive*
G04*
G01*
G75*
%ADD11C,0.1000*%
%ADD92C,0.0500*%
D11*
X500768Y266756D02*
X622268D01*
Y184756D02*
Y266756D01*
X500768Y184756D02*
X622268D01*
X500768D02*
Y266756D01*
X463768Y314256D02*
X515768D01*
Y279256D02*
Y314256D01*
X463768Y279256D02*
X515768D01*
X463768D02*
Y314256D01*
X462768Y375256D02*
X514768D01*
Y340256D02*
Y375256D01*
X462768Y340256D02*
X514768D01*
X462768D02*
Y375256D01*
X456768Y61756D02*
X508768D01*
X456768D02*
Y96756D01*
X508768D01*
Y61756D02*
Y96756D01*
X456768Y124256D02*
X508768D01*
X456768D02*
Y159256D01*
X508768D01*
Y124256D02*
Y159256D01*
D92*
X489268Y383256D02*
G03*
X516768Y410756I0J27500D01*
G01*
X461768D02*
G03*
X489268Y383256I27500J0D01*
G01*
X516768Y475756D02*
G03*
X489268Y503256I-27500J0D01*
G01*
D02*
G03*
X461768Y475756I0J-27500D01*
G01*
X197768Y181756D02*
G03*
X170268Y154256I0J-27500D01*
G01*
X225268D02*
G03*
X197768Y181756I-27500J0D01*
G01*
X170268Y89256D02*
G03*
X197768Y61756I27500J0D01*
G01*
D02*
G03*
X225268Y89256I0J27500D01*
G01*
X25500Y139500D02*
X108500D01*
X25500D02*
Y141000D01*
X3500D02*
X25500D01*
X3500Y131000D02*
Y141000D01*
X-91500Y131000D02*
X3500D01*
X-91500Y43000D02*
Y131000D01*
Y43000D02*
X3500D01*
Y33000D02*
Y43000D01*
Y33000D02*
X25500D01*
Y34500D01*
X108500D01*
Y139500D01*
X776068Y358017D02*
Y533017D01*
X601068Y358017D02*
X776068D01*
X601068D02*
Y533017D01*
X776068D01*
X471368Y195356D02*
Y216156D01*
Y195356D02*
X512168D01*
Y216156D01*
X471368D02*
X512168D01*
X519868Y398856D02*
X540668D01*
Y439656D01*
X519868D02*
X540668D01*
X519868Y398856D02*
Y439656D01*
Y483656D02*
X540668D01*
X519868Y442856D02*
Y483656D01*
Y442856D02*
X540668D01*
Y483656D01*
X489868Y577356D02*
Y598156D01*
Y577356D02*
X530668D01*
Y598156D01*
X489868D02*
X530668D01*
X489868Y555356D02*
Y576156D01*
Y555356D02*
X530668D01*
Y576156D01*
X489868D02*
X530668D01*
X489868Y532356D02*
Y553156D01*
Y532356D02*
X530668D01*
Y553156D01*
X489868D02*
X530668D01*
X297368Y106356D02*
X318168D01*
Y147156D01*
X297368D02*
X318168D01*
X297368Y106356D02*
Y147156D01*
X237368Y126356D02*
X258168D01*
Y167156D01*
X237368D02*
X258168D01*
X237368Y126356D02*
Y167156D01*
Y122156D02*
X258168D01*
X237368Y81356D02*
Y122156D01*
Y81356D02*
X258168D01*
Y122156D01*
X125518Y487756D02*
Y510756D01*
X80018D02*
X125518D01*
X80018Y487756D02*
Y510756D01*
Y487756D02*
X125518D01*
Y517756D02*
Y540756D01*
X80018D02*
X125518D01*
X80018Y517756D02*
Y540756D01*
Y517756D02*
X125518D01*
X120268Y240756D02*
Y263756D01*
X74768D02*
X120268D01*
X74768Y240756D02*
Y263756D01*
Y240756D02*
X120268D01*
X321500Y159250D02*
Y182250D01*
X276000D02*
X321500D01*
X276000Y159250D02*
Y182250D01*
Y159250D02*
X321500D01*
X120268Y270756D02*
Y293756D01*
X74768D02*
X120268D01*
X74768Y270756D02*
Y293756D01*
Y270756D02*
X120268D01*
X142750Y5500D02*
Y28500D01*
X97250D02*
X142750D01*
X97250Y5500D02*
Y28500D01*
Y5500D02*
X142750D01*
X634768Y612256D02*
Y635256D01*
Y612256D02*
X680268D01*
Y635256D01*
X634768D02*
X680268D01*
X634768Y589256D02*
Y612256D01*
Y589256D02*
X680268D01*
Y612256D01*
X634768D02*
X680268D01*
X467668Y233256D02*
Y256256D01*
Y233256D02*
X513168D01*
Y256256D01*
X467668D02*
X513168D01*
X631750Y612500D02*
Y635500D01*
X586250D02*
X631750D01*
X586250Y612500D02*
Y635500D01*
Y612500D02*
X631750D01*
X509518Y305256D02*
Y328256D01*
X464018D02*
X509518D01*
X464018Y305256D02*
Y328256D01*
Y305256D02*
X509518D01*
X458925Y152756D02*
Y175756D01*
Y152756D02*
X504425D01*
Y175756D01*
X458925D02*
X504425D01*
X713500Y97750D02*
X736500D01*
X713500Y52250D02*
Y97750D01*
Y52250D02*
X736500D01*
Y97750D01*
X458925Y45256D02*
Y68256D01*
Y45256D02*
X504425D01*
Y68256D01*
X458925D02*
X504425D01*
X509518Y326256D02*
Y349256D01*
X464018D02*
X509518D01*
X464018Y326256D02*
Y349256D01*
Y326256D02*
X509518D01*
X617018Y185756D02*
Y208756D01*
Y185756D02*
X662518D01*
Y208756D01*
X617018D02*
X662518D01*
X746768Y292006D02*
X769768D01*
X746768Y246506D02*
Y292006D01*
Y246506D02*
X769768D01*
Y292006D01*
X602768Y274506D02*
X625768D01*
Y320006D01*
X602768D02*
X625768D01*
X602768Y274506D02*
Y320006D01*
X504425Y87306D02*
Y110306D01*
X458925D02*
X504425D01*
X458925Y87306D02*
Y110306D01*
Y87306D02*
X504425D01*
Y110256D02*
Y133256D01*
X458925D02*
X504425D01*
X458925Y110256D02*
Y133256D01*
Y110256D02*
X504425D01*
X120518Y391756D02*
Y414756D01*
X75018D02*
X120518D01*
X75018Y391756D02*
Y414756D01*
Y391756D02*
X120518D01*
X120518Y361756D02*
Y384756D01*
X75018D02*
X120518D01*
X75018Y361756D02*
Y384756D01*
Y361756D02*
X120518D01*
X802518Y382756D02*
Y405756D01*
Y382756D02*
X848018D01*
Y405756D01*
X802518D02*
X848018D01*
X802518Y587756D02*
Y610756D01*
Y587756D02*
X848018D01*
Y610756D01*
X802518D02*
X848018D01*
X802518Y435256D02*
Y458256D01*
Y435256D02*
X848018D01*
Y458256D01*
X802518D02*
X848018D01*
X802518Y483956D02*
Y506956D01*
Y483956D02*
X848018D01*
Y506956D01*
X802518D02*
X848018D01*
X802518Y332756D02*
Y355756D01*
Y332756D02*
X848018D01*
Y355756D01*
X802518D02*
X848018D01*
X802518Y687756D02*
Y710756D01*
Y687756D02*
X848018D01*
Y710756D01*
X802518D02*
X848018D01*
X802518Y535256D02*
Y558256D01*
Y535256D02*
X848018D01*
Y558256D01*
X802518D02*
X848018D01*
X802518Y282756D02*
Y305756D01*
Y282756D02*
X848018D01*
Y305756D01*
X802518D02*
X848018D01*
X802518Y737756D02*
Y760756D01*
Y737756D02*
X848018D01*
Y760756D01*
X802518D02*
X848018D01*
X802250Y766500D02*
Y789500D01*
Y766500D02*
X847750D01*
Y789500D01*
X802250D02*
X847750D01*
X802250Y792500D02*
Y815500D01*
Y792500D02*
X847750D01*
Y815500D01*
X802250D02*
X847750D01*
X802250Y945500D02*
Y968500D01*
Y945500D02*
X847750D01*
Y968500D01*
X802250D02*
X847750D01*
X801250Y971500D02*
Y994500D01*
Y971500D02*
X846750D01*
Y994500D01*
X801250D02*
X846750D01*
X802250Y1010500D02*
Y1033500D01*
Y1010500D02*
X847750D01*
Y1033500D01*
X802250D02*
X847750D01*
X802518Y1042756D02*
Y1065756D01*
Y1042756D02*
X848018D01*
Y1065756D01*
X802518D02*
X848018D01*
X802518Y637756D02*
Y660756D01*
Y637756D02*
X848018D01*
Y660756D01*
X802518D02*
X848018D01*
X812268Y16256D02*
X853668D01*
Y-44D02*
Y16256D01*
Y-44D02*
X891868D01*
Y16256D01*
X979268D01*
Y142256D01*
X891868D02*
X979268D01*
X891868D02*
Y158556D01*
X853668D02*
X891868D01*
X853668Y142256D02*
Y158556D01*
X812268Y142256D02*
X853668D01*
X812268Y16256D02*
Y142256D01*
X122809Y540656D02*
Y549756D01*
X125309D01*
Y568756D01*
X113309D02*
X125309D01*
X113309D02*
Y577856D01*
X102309D02*
X113309D01*
X102309Y568756D02*
Y577856D01*
X90309Y568756D02*
X102309D01*
X90309Y549756D02*
Y568756D01*
Y549756D02*
X92809D01*
Y540656D02*
Y549756D01*
Y540656D02*
X122809D01*
X713518Y592156D02*
Y601256D01*
X716018D01*
Y620256D01*
X704018D02*
X716018D01*
X704018D02*
Y629356D01*
X693018D02*
X704018D01*
X693018Y620256D02*
Y629356D01*
X681018Y620256D02*
X693018D01*
X681018Y601256D02*
Y620256D01*
Y601256D02*
X683518D01*
Y592156D02*
Y601256D01*
Y592156D02*
X713518D01*
X626518Y573156D02*
Y582256D01*
X629018D01*
Y601256D01*
X617018D02*
X629018D01*
X617018D02*
Y610356D01*
X606018D02*
X617018D01*
X606018Y601256D02*
Y610356D01*
X594018Y601256D02*
X606018D01*
X594018Y582256D02*
Y601256D01*
Y582256D02*
X596518D01*
Y573156D02*
Y582256D01*
Y573156D02*
X626518D01*
X701768Y185756D02*
Y194856D01*
X704268D01*
Y213856D01*
X692268D02*
X704268D01*
X692268D02*
Y222956D01*
X681268D02*
X692268D01*
X681268Y213856D02*
Y222956D01*
X669268Y213856D02*
X681268D01*
X669268Y194856D02*
Y213856D01*
Y194856D02*
X671768D01*
Y185756D02*
Y194856D01*
Y185756D02*
X701768D01*
X117559Y294456D02*
Y303556D01*
X120059D01*
Y322556D01*
X108059D02*
X120059D01*
X108059D02*
Y331656D01*
X97059D02*
X108059D01*
X97059Y322556D02*
Y331656D01*
X85059Y322556D02*
X97059D01*
X85059Y303556D02*
Y322556D01*
Y303556D02*
X87559D01*
Y294456D02*
Y303556D01*
Y294456D02*
X117559D01*
Y419656D02*
Y428756D01*
X120059D01*
Y447756D01*
X108059D02*
X120059D01*
X108059D02*
Y456856D01*
X97059D02*
X108059D01*
X97059Y447756D02*
Y456856D01*
X85059Y447756D02*
X97059D01*
X85059Y428756D02*
Y447756D01*
Y428756D02*
X87559D01*
Y419656D02*
Y428756D01*
Y419656D02*
X117559D01*
X106898Y767956D02*
Y879556D01*
X231898D01*
Y767956D02*
Y879556D01*
X106898Y767956D02*
X231898D01*
X151898Y874556D02*
Y986156D01*
X26898Y874556D02*
X151898D01*
X26898D02*
Y986156D01*
X151898D01*
X516768Y410756D02*
Y475756D01*
X461768Y410756D02*
Y475756D01*
X170268Y89256D02*
Y154256D01*
X225268Y89256D02*
Y154256D01*
X898518Y1001306D02*
Y1112906D01*
X773518Y1001306D02*
X898518D01*
X773518D02*
Y1112906D01*
X898518D01*
X-79232Y1105256D02*
X45768D01*
X-79232Y993656D02*
Y1105256D01*
Y993656D02*
X45768D01*
Y1105256D01*
X351218Y159256D02*
X424318D01*
Y54256D02*
Y159256D01*
X351218Y54256D02*
X424318D01*
X351218D02*
Y159256D01*
X632500Y10700D02*
X757500D01*
Y122300D01*
X632500D02*
X757500D01*
X632500Y10700D02*
Y122300D01*
X105918Y468506D02*
X130118D01*
X105918D02*
Y480006D01*
X130118D01*
Y468506D02*
Y480006D01*
X100668Y337506D02*
X124868D01*
X100668D02*
Y349006D01*
X124868D01*
Y337506D02*
Y349006D01*
X102900Y224250D02*
X127100D01*
X102900D02*
Y235750D01*
X127100D01*
Y224250D02*
Y235750D01*
M02*
