G04*
G04 #@! TF.GenerationSoftware,Altium Limited,Altium Designer,22.9.1 (49)*
G04*
G04 Layer_Color=16711935*
%FSLAX44Y44*%
%MOMM*%
G71*
G04*
G04 #@! TF.SameCoordinates,3AF70149-3D4E-492E-B143-9ECFE05FD8F5*
G04*
G04*
G04 #@! TF.FilePolarity,Negative*
G04*
G01*
G75*
%ADD43C,3.7032*%
%ADD44R,2.4032X2.4032*%
%ADD45O,3.3032X1.7532*%
%ADD46O,2.3032X4.4032*%
%ADD47C,3.5192*%
%ADD48C,1.6112*%
%ADD49R,1.6112X1.6112*%
%ADD50R,3.7032X3.7032*%
%ADD51C,4.2032*%
%ADD52C,1.2102*%
%ADD53O,4.2032X3.2032*%
%ADD54R,4.2032X3.2032*%
%ADD55R,2.3032X2.3032*%
%ADD56C,2.3032*%
%ADD57C,2.2032*%
%ADD58C,0.5032*%
%ADD59C,0.6032*%
%ADD60C,1.0032*%
%ADD61C,0.7032*%
%ADD62C,1.4732*%
D43*
X129768Y851656D02*
D03*
Y800856D02*
D03*
Y902456D02*
D03*
X799000Y890000D02*
D03*
X798906Y189614D02*
D03*
X99000Y190000D02*
D03*
D44*
X19000Y128000D02*
D03*
X20000Y45000D02*
D03*
D45*
X91000Y87000D02*
D03*
D46*
X46000D02*
D03*
D47*
X872768Y139456D02*
D03*
Y19056D02*
D03*
D48*
X845768Y91756D02*
D03*
Y66756D02*
D03*
X825768D02*
D03*
D49*
Y91756D02*
D03*
D50*
X129768Y953256D02*
D03*
D51*
X719768Y747056D02*
D03*
Y1007056D02*
D03*
X124768D02*
D03*
Y747056D02*
D03*
D52*
X489268Y467656D02*
D03*
Y418856D02*
D03*
X197768Y97356D02*
D03*
Y146156D02*
D03*
D53*
X876018Y191006D02*
D03*
Y1003806D02*
D03*
Y851406D02*
D03*
Y902206D02*
D03*
Y953006D02*
D03*
Y800606D02*
D03*
Y445006D02*
D03*
Y699006D02*
D03*
Y648206D02*
D03*
Y394206D02*
D03*
Y241806D02*
D03*
Y597406D02*
D03*
Y343406D02*
D03*
Y546606D02*
D03*
Y749806D02*
D03*
Y292606D02*
D03*
Y495806D02*
D03*
X23268Y488156D02*
D03*
Y284956D02*
D03*
Y742156D02*
D03*
Y538956D02*
D03*
Y335756D02*
D03*
Y589756D02*
D03*
Y234156D02*
D03*
Y386556D02*
D03*
Y640556D02*
D03*
Y691356D02*
D03*
Y437356D02*
D03*
Y792956D02*
D03*
Y945356D02*
D03*
Y894556D02*
D03*
Y843756D02*
D03*
Y996156D02*
D03*
Y183356D02*
D03*
D54*
X876018Y1054606D02*
D03*
X23268Y1046956D02*
D03*
D55*
X655000Y69000D02*
D03*
D56*
Y141000D02*
D03*
D57*
X152768Y233256D02*
D03*
X347768Y308256D02*
D03*
X312768Y233256D02*
D03*
X382768D02*
D03*
X152768Y308256D02*
D03*
Y353256D02*
D03*
X347768Y428256D02*
D03*
X312768Y353256D02*
D03*
X382768D02*
D03*
X152768Y428256D02*
D03*
Y472756D02*
D03*
X347768Y547756D02*
D03*
X312768Y472756D02*
D03*
X382768D02*
D03*
X152768Y547756D02*
D03*
D58*
X778018Y490617D02*
D03*
X766100Y240506D02*
D03*
X138000Y150000D02*
D03*
X783750Y486750D02*
D03*
X807000Y239000D02*
D03*
X784750Y425500D02*
D03*
X784500Y435317D02*
D03*
X784750Y415606D02*
D03*
X784000Y475417D02*
D03*
Y465617D02*
D03*
X784250Y455400D02*
D03*
Y445500D02*
D03*
X778750Y420417D02*
D03*
X737000Y506500D02*
D03*
X745250Y505417D02*
D03*
X594750Y296750D02*
D03*
X778000Y430417D02*
D03*
X777750Y470617D02*
D03*
X777692Y480417D02*
D03*
X604018Y104006D02*
D03*
X655268Y224506D02*
D03*
X558268Y214256D02*
D03*
X597768Y485506D02*
D03*
X579018Y390006D02*
D03*
X570768Y505506D02*
D03*
X461768Y299756D02*
D03*
X586518Y455256D02*
D03*
X721268Y491506D02*
D03*
X721687Y443712D02*
D03*
X713268Y347506D02*
D03*
X600268Y346756D02*
D03*
X777768Y440506D02*
D03*
X778018Y450506D02*
D03*
X778268Y460506D02*
D03*
D59*
X697500Y500625D02*
D03*
X711000Y499750D02*
D03*
X678768Y383506D02*
D03*
X702268Y383756D02*
D03*
X644018Y582256D02*
D03*
X497268Y603506D02*
D03*
X663518Y510006D02*
D03*
X719018Y509756D02*
D03*
D60*
X787250Y10750D02*
D03*
X812768Y24256D02*
D03*
X792768Y59256D02*
D03*
X152018Y773506D02*
D03*
X168268Y288756D02*
D03*
X167018Y408506D02*
D03*
X164768Y528006D02*
D03*
X448018Y270256D02*
D03*
X405768Y271006D02*
D03*
X221268Y737006D02*
D03*
X477268Y549506D02*
D03*
X478268Y183756D02*
D03*
X446768Y151256D02*
D03*
X448518Y119756D02*
D03*
X446768Y178756D02*
D03*
D61*
X605268Y340506D02*
D03*
X726268Y222756D02*
D03*
X688768Y182256D02*
D03*
X474768Y263256D02*
D03*
X518018Y291506D02*
D03*
X510268Y385256D02*
D03*
X524018Y497506D02*
D03*
X633268Y542756D02*
D03*
X747952Y553019D02*
D03*
X728768Y560756D02*
D03*
X671768Y566506D02*
D03*
D62*
X210018Y851256D02*
D03*
X232768Y801756D02*
D03*
X145268Y606756D02*
D03*
X210268Y559256D02*
D03*
X145268Y634256D02*
D03*
X212768Y591756D02*
D03*
Y679256D02*
D03*
X145268D02*
D03*
X132768Y526756D02*
D03*
X127768Y404256D02*
D03*
X130268Y281756D02*
D03*
X332768Y81756D02*
D03*
M02*
