G04*
G04 #@! TF.GenerationSoftware,Altium Limited,Altium Designer,22.9.1 (49)*
G04*
G04 Layer_Physical_Order=2*
G04 Layer_Color=16711680*
%FSLAX44Y44*%
%MOMM*%
G71*
G04*
G04 #@! TF.SameCoordinates,3AF70149-3D4E-492E-B143-9ECFE05FD8F5*
G04*
G04*
G04 #@! TF.FilePolarity,Positive*
G04*
G01*
G75*
%ADD15C,0.5000*%
%ADD30C,3.5000*%
%ADD63C,0.3000*%
%ADD65C,1.0000*%
%ADD66C,0.7000*%
%ADD69C,1.5000*%
%ADD72R,2.2000X2.2000*%
%ADD73O,3.1000X1.5500*%
%ADD74O,2.1000X4.2000*%
%ADD75C,3.3160*%
%ADD76C,1.4080*%
%ADD77R,1.4080X1.4080*%
%ADD78R,3.5000X3.5000*%
%ADD79C,4.0000*%
%ADD80C,1.0070*%
%ADD81O,4.0000X3.0000*%
%ADD82R,4.0000X3.0000*%
%ADD83R,2.1000X2.1000*%
%ADD84C,2.1000*%
%ADD85C,2.0000*%
%ADD86C,0.3000*%
%ADD87C,0.4000*%
%ADD88C,0.8000*%
%ADD89C,0.5000*%
%ADD90C,1.2700*%
D15*
X807000Y239000D02*
X824000Y222000D01*
Y93524D02*
X825768Y91756D01*
X824000Y93524D02*
Y222000D01*
X774268Y240506D02*
X805494D01*
X569018D02*
X774268D01*
X805494D02*
X807000Y239000D01*
X518018Y291506D02*
X569018Y240506D01*
X645018Y214256D02*
X655268Y224506D01*
X558268Y214256D02*
X645018D01*
X461768Y299756D02*
X570768Y408756D01*
Y505506D01*
X688768Y182256D02*
Y185256D01*
X726268Y222756D01*
X478268Y167037D02*
Y183756D01*
X448518Y119756D02*
Y137287D01*
X478268Y167037D01*
X446768Y151256D02*
Y178756D01*
D30*
X129768Y851656D02*
D03*
Y800856D02*
D03*
Y902456D02*
D03*
X799000Y890000D02*
D03*
X798906Y189614D02*
D03*
X99000Y190000D02*
D03*
D63*
X859768Y947492D02*
G03*
X845004Y877434I219570J-82856D01*
G01*
X859923Y947853D02*
G03*
X859768Y947492I4136J-1993D01*
G01*
X844855Y876657D02*
G03*
X845004Y877434I-2846J950D01*
G01*
X844850Y876643D02*
G03*
X843995Y873696I32285J-10960D01*
G01*
X783750Y970238D02*
G03*
X756057Y891894I96908J-78321D01*
G01*
D02*
G03*
X783750Y813643I124468J23D01*
G01*
X871946Y951883D02*
Y953006D01*
X859923Y947853D02*
X860350Y948280D01*
X859923Y947853D02*
X859923Y947853D01*
X845004Y877434D02*
X845004Y877434D01*
X844850Y876645D02*
X844855Y876657D01*
X844850Y876643D02*
X844850Y876645D01*
X790750Y820451D02*
X843995Y873696D01*
X871946Y953006D02*
X876018D01*
X860910Y948840D02*
X871946Y951883D01*
X860350Y948280D02*
X860910Y948840D01*
X790750Y486250D02*
Y820451D01*
X870463Y884463D02*
Y896651D01*
X796750Y483750D02*
Y810750D01*
X870463Y896651D02*
X876018Y902206D01*
X796750Y810750D02*
X870463Y884463D01*
X783750Y813643D02*
X783750Y812589D01*
Y970238D02*
X817768Y1004256D01*
X783750Y486750D02*
Y812589D01*
X748000Y574000D02*
X778018Y543982D01*
X748000Y1014488D02*
X788118Y1054606D01*
X748000Y574000D02*
Y1014488D01*
X778018Y490617D02*
Y543982D01*
X90268Y91756D02*
Y102268D01*
X138000Y150000D01*
X784750Y425500D02*
X784767Y425517D01*
X839707D01*
X875968Y394256D02*
X876018Y394206D01*
X784500Y435317D02*
X810530D01*
X874368Y294256D02*
X876018Y292606D01*
X784750Y415606D02*
X787180D01*
X784917Y480417D02*
X790750Y486250D01*
X777692Y480417D02*
X784917D01*
X784000Y475417D02*
X788417D01*
X796750Y483750D01*
X784000Y465617D02*
X794617D01*
X784250Y455400D02*
X798259D01*
X821750Y478891D01*
X801750Y450500D02*
X829500Y478250D01*
X805320Y445500D02*
X836750Y476930D01*
X778024Y450500D02*
X801750D01*
X778018Y450506D02*
X778024Y450500D01*
X784250Y445500D02*
X805320D01*
X810530Y435317D02*
X871018Y495806D01*
X807256Y440506D02*
X844500Y477750D01*
X777768Y440506D02*
X807256D01*
X779006Y420506D02*
X824994D01*
X778750Y420417D02*
X778917D01*
X779006Y420506D01*
X791268Y394232D02*
Y411518D01*
X787180Y415606D02*
X791268Y411518D01*
X790447Y470517D02*
X802350Y482420D01*
Y782738D01*
X777883Y470617D02*
X777983Y470517D01*
X794617Y465617D02*
X807750Y478750D01*
X777983Y470517D02*
X790447D01*
X777750Y470617D02*
X777883D01*
X738518Y485006D02*
Y504982D01*
X737000Y506500D02*
X738518Y504982D01*
X745250Y480488D02*
Y505417D01*
X605268Y340506D02*
X745250Y480488D01*
X814750Y713037D02*
X851518Y749806D01*
X814750Y478820D02*
Y713037D01*
X802350Y782738D02*
X871018Y851406D01*
X796230Y460300D02*
X814750Y478820D01*
X807750Y762000D02*
X846356Y800606D01*
X807750Y478750D02*
Y762000D01*
X846356Y800606D02*
X876018D01*
X448975Y271213D02*
X455963D01*
X448018Y270256D02*
X448975Y271213D01*
X496000Y311250D02*
X531250D01*
X455963Y271213D02*
X496000Y311250D01*
X531250D02*
X545750Y296750D01*
X594750D01*
X710729Y499750D02*
X711000D01*
X709855Y500625D02*
X710729Y499750D01*
X697771Y500625D02*
X709855D01*
X663518Y510006D02*
X663643Y509881D01*
X718893D02*
X719018Y509756D01*
X663643Y509881D02*
X718893D01*
X728227Y560756D02*
X728768D01*
X726721Y559250D02*
X728227Y560756D01*
X598393Y565006D02*
X604149Y559250D01*
X726721D01*
X574018Y553256D02*
X747715D01*
X453768Y538006D02*
X474268Y558506D01*
X568768D02*
X574018Y553256D01*
X747715D02*
X747952Y553019D01*
X474268Y558506D02*
X568768D01*
X792768Y17253D02*
Y59256D01*
X787250Y10750D02*
Y11734D01*
X792768Y17253D01*
X817768Y1004256D02*
X818218Y1003806D01*
X876018D01*
X839750Y323874D02*
X871018Y292606D01*
X876018D01*
X839750Y323874D02*
Y345750D01*
X791268Y394232D02*
X839750Y345750D01*
X871018Y343406D02*
X876018D01*
X838500Y375924D02*
X871018Y343406D01*
X838500Y375924D02*
Y407000D01*
X824994Y420506D02*
X838500Y407000D01*
X821750Y478891D02*
Y669238D01*
X851518Y699006D01*
X829500Y626188D02*
X851518Y648206D01*
X829500Y478250D02*
Y626188D01*
X836750Y582637D02*
X851518Y597406D01*
X836750Y476930D02*
Y582637D01*
X778941Y460300D02*
X796230D01*
X844500Y477750D02*
Y539588D01*
X851518Y546606D01*
X839707Y425517D02*
X871018Y394206D01*
X856430Y430417D02*
X871018Y445006D01*
X778000Y430417D02*
X856430D01*
X778735Y460506D02*
X778941Y460300D01*
X778268Y460506D02*
X778735D01*
X851518Y546606D02*
X876018D01*
X851518Y749806D02*
X876018D01*
X851518Y597406D02*
X876018D01*
X871018Y495806D02*
X876018D01*
X871018Y851406D02*
X876018D01*
X851518Y699006D02*
X876018D01*
X851518Y648206D02*
X876018D01*
X871018Y394206D02*
X876018D01*
X871018Y445006D02*
X876018D01*
X788118Y1054606D02*
X876018D01*
X875168Y344256D02*
X876018Y343406D01*
X875768Y445256D02*
X876018Y445006D01*
X152018Y773506D02*
X184768D01*
X221268Y737006D01*
X595768Y483506D02*
X597768Y485506D01*
X595768Y395763D02*
Y483506D01*
X594011Y394006D02*
X595768Y395763D01*
X583018Y394006D02*
X594011D01*
X579018Y390006D02*
X583018Y394006D01*
X586518Y507006D02*
X602518Y523006D01*
X628518D01*
X586518Y455256D02*
Y507006D01*
X721268Y491506D02*
Y499371D01*
X719018Y501621D02*
X721268Y499371D01*
X719018Y501621D02*
Y509756D01*
X713268Y435293D02*
X721687Y443712D01*
X713268Y347506D02*
Y435293D01*
X600268Y346756D02*
X738518Y485006D01*
X702143Y383631D02*
X702268Y383756D01*
X678893Y383631D02*
X702143D01*
X678768Y383506D02*
X678893Y383631D01*
X551893Y549881D02*
X559018Y542756D01*
X633268D01*
X453768Y534256D02*
Y538006D01*
X433268Y513756D02*
X453768Y534256D01*
X472518Y565006D02*
X598393D01*
X428518Y521006D02*
X472518Y565006D01*
X667018Y571256D02*
X671768Y566506D01*
X469018Y571256D02*
X667018D01*
X425768Y528006D02*
X469018Y571256D01*
X244776Y521006D02*
X428518D01*
X164768Y528006D02*
X425768D01*
X267268Y511999D02*
X269025Y513756D01*
X433268D01*
X267268Y387756D02*
Y511999D01*
X168268Y288756D02*
X267268Y387756D01*
X243018Y484506D02*
Y519249D01*
X244776Y521006D01*
X167018Y408506D02*
X243018Y484506D01*
X405768Y271006D02*
X406143Y270631D01*
X447643D01*
X448018Y270256D01*
X477643Y549881D02*
X551893D01*
X477268Y549506D02*
X477643Y549881D01*
D65*
X837768Y208556D02*
X871018Y241806D01*
X837768Y174256D02*
Y208556D01*
X871018Y241806D02*
X876018D01*
X846549Y113659D02*
X872768Y139878D01*
X837768Y174256D02*
X872457Y139567D01*
X872768Y139456D02*
Y139878D01*
X846549Y92178D02*
Y113659D01*
X872768Y19478D02*
Y139456D01*
X872457Y139567D02*
X872568Y139456D01*
X872768D01*
X474768Y263256D02*
X489768D01*
X518018Y291506D01*
X510268Y385256D02*
X511268D01*
X524018Y398006D01*
Y497506D01*
X497268Y603506D02*
X518518Y582256D01*
X644018D01*
X130268Y801706D02*
X232718D01*
X145785Y606239D02*
X163285D01*
X210268Y559256D01*
X145268Y606756D02*
X145785Y606239D01*
X145268Y634256D02*
X170268D01*
X212768Y591756D01*
X145268Y679256D02*
X212768D01*
D66*
X812768Y53756D02*
X825768Y66756D01*
X812768Y24256D02*
Y53756D01*
X347768Y308256D02*
X348268D01*
X413018Y243506D01*
X464518D01*
X604018Y104006D01*
X327768Y94256D02*
X331678Y90347D01*
Y82847D02*
X332768Y81756D01*
X331678Y82847D02*
Y90347D01*
X249668Y94256D02*
X327768D01*
X197768Y146156D02*
X249668Y94256D01*
D69*
X65000Y626488D02*
Y761636D01*
X33680Y792956D02*
X71068D01*
X23268D02*
X33680D01*
X65000Y761636D01*
X28268Y589756D02*
X65000Y626488D01*
X23268Y589756D02*
X28268D01*
X55000Y563024D01*
Y483142D02*
Y563024D01*
Y483142D02*
X98614Y526756D01*
X132768D01*
X27095Y484329D02*
X53813D01*
X55000Y483142D01*
Y413288D02*
Y483142D01*
X23268Y488156D02*
X27095Y484329D01*
X28268Y386556D02*
X55000Y413288D01*
Y359824D02*
X99432Y404256D01*
X127768D01*
X55000Y311688D02*
Y359824D01*
X23268Y386556D02*
X28268D01*
X55000Y359824D01*
X28268Y284956D02*
X55000Y311688D01*
X107486Y258974D02*
X130268Y281756D01*
X54250Y258974D02*
X107486D01*
X28268Y284956D02*
X54250Y258974D01*
X23268Y284956D02*
X28268D01*
X23268Y183356D02*
X28268D01*
X54250Y209338D01*
Y258974D01*
X20768Y180856D02*
X23268Y183356D01*
X18268Y132756D02*
X20768Y135256D01*
Y180856D01*
X24268Y123256D02*
X45268Y102256D01*
X18268Y132756D02*
X24268Y126756D01*
X45268Y91756D02*
Y102256D01*
X24268Y123256D02*
Y126756D01*
X43163Y89651D02*
X45268Y91756D01*
X19268Y49756D02*
X43163Y73651D01*
Y89651D01*
X71068Y792956D02*
X129768Y851656D01*
X209287Y851256D02*
X210018D01*
X208162Y852381D02*
X209287Y851256D01*
X130393Y852381D02*
X208162D01*
X232718Y801706D02*
X232768Y801756D01*
D72*
X19000Y128000D02*
D03*
X20000Y45000D02*
D03*
D73*
X91000Y87000D02*
D03*
D74*
X46000D02*
D03*
D75*
X872768Y139456D02*
D03*
Y19056D02*
D03*
D76*
X845768Y91756D02*
D03*
Y66756D02*
D03*
X825768D02*
D03*
D77*
Y91756D02*
D03*
D78*
X129768Y953256D02*
D03*
D79*
X719768Y747056D02*
D03*
Y1007056D02*
D03*
X124768D02*
D03*
Y747056D02*
D03*
D80*
X489268Y467656D02*
D03*
Y418856D02*
D03*
X197768Y97356D02*
D03*
Y146156D02*
D03*
D81*
X876018Y191006D02*
D03*
Y1003806D02*
D03*
Y851406D02*
D03*
Y902206D02*
D03*
Y953006D02*
D03*
Y800606D02*
D03*
Y445006D02*
D03*
Y699006D02*
D03*
Y648206D02*
D03*
Y394206D02*
D03*
Y241806D02*
D03*
Y597406D02*
D03*
Y343406D02*
D03*
Y546606D02*
D03*
Y749806D02*
D03*
Y292606D02*
D03*
Y495806D02*
D03*
X23268Y488156D02*
D03*
Y284956D02*
D03*
Y742156D02*
D03*
Y538956D02*
D03*
Y335756D02*
D03*
Y589756D02*
D03*
Y234156D02*
D03*
Y386556D02*
D03*
Y640556D02*
D03*
Y691356D02*
D03*
Y437356D02*
D03*
Y792956D02*
D03*
Y945356D02*
D03*
Y894556D02*
D03*
Y843756D02*
D03*
Y996156D02*
D03*
Y183356D02*
D03*
D82*
X876018Y1054606D02*
D03*
X23268Y1046956D02*
D03*
D83*
X655000Y69000D02*
D03*
D84*
Y141000D02*
D03*
D85*
X152768Y233256D02*
D03*
X347768Y308256D02*
D03*
X312768Y233256D02*
D03*
X382768D02*
D03*
X152768Y308256D02*
D03*
Y353256D02*
D03*
X347768Y428256D02*
D03*
X312768Y353256D02*
D03*
X382768D02*
D03*
X152768Y428256D02*
D03*
Y472756D02*
D03*
X347768Y547756D02*
D03*
X312768Y472756D02*
D03*
X382768D02*
D03*
X152768Y547756D02*
D03*
D86*
X860350Y948280D02*
D03*
X778018Y490617D02*
D03*
X766100Y240506D02*
D03*
X138000Y150000D02*
D03*
X783750Y486750D02*
D03*
X807000Y239000D02*
D03*
X784750Y425500D02*
D03*
X784500Y435317D02*
D03*
X784750Y415606D02*
D03*
X784000Y475417D02*
D03*
Y465617D02*
D03*
X784250Y455400D02*
D03*
Y445500D02*
D03*
X778750Y420417D02*
D03*
X737000Y506500D02*
D03*
X745250Y505417D02*
D03*
X594750Y296750D02*
D03*
X778000Y430417D02*
D03*
X777750Y470617D02*
D03*
X777692Y480417D02*
D03*
X604018Y104006D02*
D03*
X655268Y224506D02*
D03*
X558268Y214256D02*
D03*
X597768Y485506D02*
D03*
X579018Y390006D02*
D03*
X570768Y505506D02*
D03*
X461768Y299756D02*
D03*
X586518Y455256D02*
D03*
X721268Y491506D02*
D03*
X721687Y443712D02*
D03*
X713268Y347506D02*
D03*
X600268Y346756D02*
D03*
X777768Y440506D02*
D03*
X778018Y450506D02*
D03*
X778268Y460506D02*
D03*
D87*
X697500Y500625D02*
D03*
X711000Y499750D02*
D03*
X678768Y383506D02*
D03*
X702268Y383756D02*
D03*
X644018Y582256D02*
D03*
X497268Y603506D02*
D03*
X663518Y510006D02*
D03*
X719018Y509756D02*
D03*
D88*
X787250Y10750D02*
D03*
X812768Y24256D02*
D03*
X792768Y59256D02*
D03*
X152018Y773506D02*
D03*
X168268Y288756D02*
D03*
X167018Y408506D02*
D03*
X164768Y528006D02*
D03*
X448018Y270256D02*
D03*
X405768Y271006D02*
D03*
X221268Y737006D02*
D03*
X477268Y549506D02*
D03*
X478268Y183756D02*
D03*
X446768Y151256D02*
D03*
X448518Y119756D02*
D03*
X446768Y178756D02*
D03*
D89*
X605268Y340506D02*
D03*
X726268Y222756D02*
D03*
X688768Y182256D02*
D03*
X474768Y263256D02*
D03*
X518018Y291506D02*
D03*
X510268Y385256D02*
D03*
X524018Y497506D02*
D03*
X633268Y542756D02*
D03*
X747952Y553019D02*
D03*
X728768Y560756D02*
D03*
X671768Y566506D02*
D03*
D90*
X210018Y851256D02*
D03*
X232768Y801756D02*
D03*
X145268Y606756D02*
D03*
X210268Y559256D02*
D03*
X145268Y634256D02*
D03*
X212768Y591756D02*
D03*
Y679256D02*
D03*
X145268D02*
D03*
X132768Y526756D02*
D03*
X127768Y404256D02*
D03*
X130268Y281756D02*
D03*
X332768Y81756D02*
D03*
M02*
