G04*
G04 #@! TF.GenerationSoftware,Altium Limited,Altium Designer,22.9.1 (49)*
G04*
G04 Layer_Physical_Order=1*
G04 Layer_Color=255*
%FSLAX44Y44*%
%MOMM*%
G71*
G04*
G04 #@! TF.SameCoordinates,3AF70149-3D4E-492E-B143-9ECFE05FD8F5*
G04*
G04*
G04 #@! TF.FilePolarity,Positive*
G04*
G01*
G75*
%ADD15C,0.5000*%
%ADD18R,0.3000X1.5000*%
%ADD19R,1.5000X0.3000*%
%ADD20R,1.0400X1.7800*%
%ADD21R,1.7800X1.0400*%
%ADD22R,1.0500X1.8000*%
%ADD23R,1.8000X1.0500*%
%ADD24R,1.5500X1.3000*%
G04:AMPARAMS|DCode=25|XSize=1.26mm|YSize=0.59mm|CornerRadius=0.0738mm|HoleSize=0mm|Usage=FLASHONLY|Rotation=90.000|XOffset=0mm|YOffset=0mm|HoleType=Round|Shape=RoundedRectangle|*
%AMROUNDEDRECTD25*
21,1,1.2600,0.4425,0,0,90.0*
21,1,1.1125,0.5900,0,0,90.0*
1,1,0.1475,0.2213,0.5563*
1,1,0.1475,0.2213,-0.5563*
1,1,0.1475,-0.2213,-0.5563*
1,1,0.1475,-0.2213,0.5563*
%
%ADD25ROUNDEDRECTD25*%
%ADD26R,1.5200X1.7800*%
%ADD27R,0.8000X1.5000*%
G04:AMPARAMS|DCode=28|XSize=1.31mm|YSize=0.62mm|CornerRadius=0.0775mm|HoleSize=0mm|Usage=FLASHONLY|Rotation=0.000|XOffset=0mm|YOffset=0mm|HoleType=Round|Shape=RoundedRectangle|*
%AMROUNDEDRECTD28*
21,1,1.3100,0.4650,0,0,0.0*
21,1,1.1550,0.6200,0,0,0.0*
1,1,0.1550,0.5775,-0.2325*
1,1,0.1550,-0.5775,-0.2325*
1,1,0.1550,-0.5775,0.2325*
1,1,0.1550,0.5775,0.2325*
%
%ADD28ROUNDEDRECTD28*%
%ADD29R,1.0000X1.5000*%
%ADD30C,3.5000*%
%ADD63C,0.3000*%
%ADD64C,0.6000*%
%ADD65C,1.0000*%
%ADD66C,0.7000*%
%ADD67C,0.4000*%
%ADD68C,0.8000*%
%ADD69C,1.5000*%
%ADD70C,2.0000*%
%ADD71C,1.2000*%
%ADD72R,2.2000X2.2000*%
%ADD73O,3.1000X1.5500*%
%ADD74O,2.1000X4.2000*%
%ADD75C,3.3160*%
%ADD76C,1.4080*%
%ADD77R,1.4080X1.4080*%
%ADD78R,3.5000X3.5000*%
%ADD79C,4.0000*%
%ADD80C,1.0070*%
%ADD81O,4.0000X3.0000*%
%ADD82R,4.0000X3.0000*%
%ADD83R,2.1000X2.1000*%
%ADD84C,2.1000*%
%ADD85C,2.0000*%
%ADD86C,0.3000*%
%ADD87C,0.4000*%
%ADD88C,0.8000*%
%ADD89C,0.5000*%
%ADD90C,1.2700*%
D15*
X762018Y254256D02*
X764768Y251506D01*
Y241838D02*
X766100Y240506D01*
X764768Y241838D02*
Y251506D01*
X758268Y254256D02*
X762018D01*
X97000Y776435D02*
Y825824D01*
Y776435D02*
X99929Y773506D01*
X100256D01*
X28268Y894556D02*
X97000Y825824D01*
X23268Y894556D02*
X28268D01*
X466675Y98806D02*
Y122248D01*
X655418Y224356D02*
X689918Y258856D01*
X540268Y207006D02*
X547518Y214256D01*
X558268D01*
X461768Y299756D02*
X464768Y296756D01*
X477768D01*
X528768Y207006D02*
X540268D01*
X525018Y203256D02*
X528768Y207006D01*
X726268Y222756D02*
X730718Y227206D01*
Y258856D01*
X688768Y183706D02*
X696268Y191206D01*
X688768Y182256D02*
Y183706D01*
X696268Y191206D02*
Y194556D01*
X389468Y164256D02*
X466675D01*
X363718Y138506D02*
X389468Y164256D01*
X360268Y138506D02*
X363718D01*
X478168Y183856D02*
Y205656D01*
Y183856D02*
X478268Y183756D01*
X478068Y205756D02*
X478168Y205656D01*
X446718Y151206D02*
X446768Y151256D01*
X430647Y151206D02*
X446718D01*
X441868Y113106D02*
X448518Y119756D01*
X415268Y113106D02*
X441868D01*
X456854Y124999D02*
X463925D01*
X466675Y122248D01*
X430647Y151206D02*
X456854Y124999D01*
X415268Y151206D02*
X430647D01*
D18*
X748568Y523017D02*
D03*
X743568D02*
D03*
X738568D02*
D03*
X733568D02*
D03*
X728568D02*
D03*
X723568D02*
D03*
X718568D02*
D03*
X713568D02*
D03*
X708568D02*
D03*
X703568D02*
D03*
X698568D02*
D03*
X693568D02*
D03*
X688568D02*
D03*
X683568D02*
D03*
X678568D02*
D03*
X673568D02*
D03*
X668568D02*
D03*
X663568D02*
D03*
X658568D02*
D03*
X653568D02*
D03*
X648568D02*
D03*
X643568D02*
D03*
X638568D02*
D03*
X633568D02*
D03*
X628568D02*
D03*
Y368017D02*
D03*
X633568D02*
D03*
X638568D02*
D03*
X643568D02*
D03*
X648568D02*
D03*
X653568D02*
D03*
X658568D02*
D03*
X663568D02*
D03*
X668568D02*
D03*
X673568D02*
D03*
X678568D02*
D03*
X683568D02*
D03*
X688568D02*
D03*
X693568D02*
D03*
X698568D02*
D03*
X703568D02*
D03*
X708568D02*
D03*
X713568D02*
D03*
X718568D02*
D03*
X723568D02*
D03*
X728568D02*
D03*
X733568D02*
D03*
X738568D02*
D03*
X743568D02*
D03*
X748568D02*
D03*
D19*
X611068Y505517D02*
D03*
Y500517D02*
D03*
Y495517D02*
D03*
Y490517D02*
D03*
Y485517D02*
D03*
Y480517D02*
D03*
Y475517D02*
D03*
Y470517D02*
D03*
Y465517D02*
D03*
Y460517D02*
D03*
Y455517D02*
D03*
Y450517D02*
D03*
Y445517D02*
D03*
Y440517D02*
D03*
Y435517D02*
D03*
Y430517D02*
D03*
Y425517D02*
D03*
Y420517D02*
D03*
Y415517D02*
D03*
Y410517D02*
D03*
Y405517D02*
D03*
Y400517D02*
D03*
Y395517D02*
D03*
Y390517D02*
D03*
Y385517D02*
D03*
X766068D02*
D03*
Y390517D02*
D03*
Y395517D02*
D03*
Y400517D02*
D03*
Y405517D02*
D03*
Y410517D02*
D03*
Y415517D02*
D03*
Y420517D02*
D03*
Y425517D02*
D03*
Y430517D02*
D03*
Y435517D02*
D03*
Y440517D02*
D03*
Y445517D02*
D03*
Y450517D02*
D03*
Y455517D02*
D03*
Y460517D02*
D03*
Y465517D02*
D03*
Y470517D02*
D03*
Y475517D02*
D03*
Y480517D02*
D03*
Y485517D02*
D03*
Y490517D02*
D03*
Y495517D02*
D03*
Y500517D02*
D03*
Y505517D02*
D03*
D20*
X505468Y205756D02*
D03*
X478068D02*
D03*
X523968Y587756D02*
D03*
X496568D02*
D03*
X523968Y565756D02*
D03*
X496568D02*
D03*
X523968Y542756D02*
D03*
X496568D02*
D03*
D21*
X530268Y432956D02*
D03*
Y405556D02*
D03*
Y449556D02*
D03*
Y476956D02*
D03*
X307768Y140456D02*
D03*
Y113056D02*
D03*
X247768Y160456D02*
D03*
Y133056D02*
D03*
Y88056D02*
D03*
Y115456D02*
D03*
D22*
X87768Y499256D02*
D03*
X117768D02*
D03*
X87768Y529256D02*
D03*
X117768D02*
D03*
X82518Y252256D02*
D03*
X112518D02*
D03*
X283750Y170750D02*
D03*
X313750D02*
D03*
X82518Y282256D02*
D03*
X112518D02*
D03*
X105000Y17000D02*
D03*
X135000D02*
D03*
X672518Y623756D02*
D03*
X642518D02*
D03*
X672518Y600756D02*
D03*
X642518D02*
D03*
X505418Y244756D02*
D03*
X475418D02*
D03*
X594000Y624000D02*
D03*
X624000D02*
D03*
X471768Y316756D02*
D03*
X501768D02*
D03*
X496675Y164256D02*
D03*
X466675D02*
D03*
X496675Y56756D02*
D03*
X466675D02*
D03*
X471768Y337756D02*
D03*
X501768D02*
D03*
X654768Y197256D02*
D03*
X624768D02*
D03*
X466675Y98806D02*
D03*
X496675D02*
D03*
X466675Y121756D02*
D03*
X496675D02*
D03*
X82768Y403256D02*
D03*
X112768D02*
D03*
X82768Y373256D02*
D03*
X112768D02*
D03*
X840268Y394256D02*
D03*
X810268D02*
D03*
X840268Y599256D02*
D03*
X810268D02*
D03*
X840268Y446756D02*
D03*
X810268D02*
D03*
X840268Y495456D02*
D03*
X810268D02*
D03*
X840268Y344256D02*
D03*
X810268D02*
D03*
X840268Y699256D02*
D03*
X810268D02*
D03*
X840268Y546756D02*
D03*
X810268D02*
D03*
X840268Y294256D02*
D03*
X810268D02*
D03*
X840268Y749256D02*
D03*
X810268D02*
D03*
X840000Y778000D02*
D03*
X810000D02*
D03*
X840000Y804000D02*
D03*
X810000D02*
D03*
X840000Y957000D02*
D03*
X810000D02*
D03*
X839000Y983000D02*
D03*
X809000D02*
D03*
X840000Y1022000D02*
D03*
X810000D02*
D03*
X840268Y1054256D02*
D03*
X810268D02*
D03*
X840268Y649256D02*
D03*
X810268D02*
D03*
D23*
X725000Y60000D02*
D03*
Y90000D02*
D03*
X758268Y254256D02*
D03*
Y284256D02*
D03*
X614268Y312256D02*
D03*
Y282256D02*
D03*
D24*
X525018Y248256D02*
D03*
Y203256D02*
D03*
X604518Y248256D02*
D03*
Y203256D02*
D03*
D25*
X98309Y549456D02*
D03*
X117309D02*
D03*
X107809Y569056D02*
D03*
X689018Y600956D02*
D03*
X708018D02*
D03*
X698518Y620556D02*
D03*
X602018Y581956D02*
D03*
X621018D02*
D03*
X611518Y601556D02*
D03*
X677268Y194556D02*
D03*
X696268D02*
D03*
X686768Y214156D02*
D03*
X93059Y303256D02*
D03*
X112059D02*
D03*
X102559Y322856D02*
D03*
X93059Y428456D02*
D03*
X112059D02*
D03*
X102559Y448056D02*
D03*
D26*
X730718Y309656D02*
D03*
Y284256D02*
D03*
Y258856D02*
D03*
X637818D02*
D03*
Y284256D02*
D03*
Y309656D02*
D03*
D27*
X477768Y296756D02*
D03*
X501768D02*
D03*
X476768Y357756D02*
D03*
X500768D02*
D03*
X494768Y79256D02*
D03*
X470768D02*
D03*
X494768Y141756D02*
D03*
X470768D02*
D03*
D28*
X415268Y151206D02*
D03*
Y138506D02*
D03*
X360268Y62306D02*
D03*
X415268Y75006D02*
D03*
X360268D02*
D03*
Y100406D02*
D03*
X415268Y62306D02*
D03*
X360268Y87706D02*
D03*
X415268D02*
D03*
Y100406D02*
D03*
Y125806D02*
D03*
X360268Y113106D02*
D03*
Y125806D02*
D03*
Y151206D02*
D03*
X415268Y113106D02*
D03*
X360268Y138506D02*
D03*
D29*
X118018Y474256D02*
D03*
X73018D02*
D03*
X112768Y343256D02*
D03*
X67768D02*
D03*
X115000Y230000D02*
D03*
X70000D02*
D03*
D30*
X460322Y446326D02*
D03*
X174268Y126506D02*
D03*
X129768Y851656D02*
D03*
Y800856D02*
D03*
Y902456D02*
D03*
X799000Y890000D02*
D03*
X798906Y189614D02*
D03*
X99000Y190000D02*
D03*
D63*
X773024Y79000D02*
Y314753D01*
X728568Y359209D02*
X773024Y314753D01*
Y79000D02*
X792768Y59256D01*
X620705Y630154D02*
X626137Y624722D01*
X620705Y630154D02*
Y635319D01*
X616018Y640006D02*
X620705Y635319D01*
X777918Y490517D02*
X778018Y490617D01*
X766068Y490517D02*
X777918D01*
X138000Y155750D02*
X166850Y184600D01*
X138000Y150000D02*
Y155750D01*
X414505Y178250D02*
X426018Y189763D01*
X317500Y178250D02*
X414505D01*
X273650Y184600D02*
X283750Y174500D01*
X166850Y184600D02*
X273650D01*
X283750Y170750D02*
Y174500D01*
X314000Y170250D02*
Y174750D01*
X317500Y178250D01*
X582768Y580006D02*
Y638249D01*
X584525Y640006D02*
X616018D01*
X582768Y638249D02*
X584525Y640006D01*
X582768Y580006D02*
X604768Y558006D01*
X782517Y485517D02*
X783750Y486750D01*
X766068Y485517D02*
X782517D01*
X782500Y405517D02*
X787517D01*
X766068D02*
X782500D01*
X724029D02*
X766068D01*
X728568Y359209D02*
Y368017D01*
X783124Y495517D02*
Y499126D01*
X788743Y497832D02*
X790500Y496075D01*
X784418Y497832D02*
X788743D01*
X790500Y408500D02*
Y496075D01*
X784300Y435517D02*
X784500Y435317D01*
X784733Y425517D02*
X784750Y425500D01*
X766068Y425517D02*
X784733D01*
X784661Y415517D02*
X784750Y415606D01*
X766068Y435517D02*
X784300D01*
X783124Y499126D02*
X784418Y497832D01*
X787517Y405517D02*
X790500Y408500D01*
X766068Y415517D02*
X784661D01*
X766068Y475517D02*
X783900D01*
X784000Y475417D01*
X783900Y465517D02*
X784000Y465617D01*
X766068Y465517D02*
X783900D01*
X766068Y455517D02*
X784133D01*
X784250Y455400D01*
X784233Y445517D02*
X784250Y445500D01*
X766068Y445517D02*
X784233D01*
X766068Y420517D02*
X778650D01*
X778750Y420417D01*
X738568Y508068D02*
Y523017D01*
X737000Y506500D02*
X738568Y508068D01*
X743568Y507099D02*
X745250Y505417D01*
X743568Y507099D02*
Y523017D01*
X610518Y282256D02*
X614268D01*
X596024Y296750D02*
X610518Y282256D01*
X594750Y296750D02*
X596024D01*
X776733Y505517D02*
X783124Y499126D01*
X766068Y505517D02*
X776733D01*
X697500Y507556D02*
X698568Y508625D01*
X697500Y500625D02*
Y507556D01*
X698568Y508625D02*
Y523017D01*
Y554956D01*
X732310Y500517D02*
X752583D01*
X699044Y487282D02*
Y487602D01*
X731543Y499750D02*
X732310Y500517D01*
X699044Y487602D02*
X711000Y499558D01*
X687280Y475517D02*
X699044Y487282D01*
X711000Y499750D02*
X731543D01*
X711000Y499558D02*
Y499750D01*
X698518Y572732D02*
Y620556D01*
X703568Y499056D02*
Y523017D01*
X698518Y572732D02*
X703568Y567682D01*
Y523017D02*
Y567682D01*
X671268Y582256D02*
X698568Y554956D01*
X714767Y410517D02*
X750518D01*
X683568Y379318D02*
X714767Y410517D01*
X683568Y368017D02*
Y379318D01*
X678768Y383235D02*
Y383506D01*
X678568Y383036D02*
X678768Y383235D01*
X678568Y368017D02*
Y383036D01*
X136518Y11756D02*
X147957D01*
X132768Y15506D02*
Y19256D01*
Y15506D02*
X136518Y11756D01*
X147957D02*
X148963Y10750D01*
X90268Y62361D02*
X102768Y49861D01*
Y19256D02*
Y49861D01*
X90268Y62361D02*
Y91756D01*
X100256Y773506D02*
X152018D01*
X148963Y10750D02*
X787250D01*
X766068Y495517D02*
X783124D01*
X777900Y430517D02*
X778000Y430417D01*
X766068Y430517D02*
X777900D01*
X777650Y470517D02*
X777750Y470617D01*
X766068Y470517D02*
X777650D01*
X777592Y480517D02*
X777692Y480417D01*
X766068Y480517D02*
X777592D01*
X513268Y64256D02*
X575518Y126506D01*
X500425Y64256D02*
X513268D01*
X575518Y126506D02*
Y310756D01*
X496675Y60506D02*
X500425Y64256D01*
X597768Y485506D02*
X597780Y485517D01*
X611068D01*
X563018Y373506D02*
X579018Y389506D01*
Y390006D01*
X561261Y273256D02*
X563018Y275013D01*
Y373506D01*
X551268Y273256D02*
X561261D01*
X525018Y248256D02*
X526268D01*
X551268Y273256D01*
X570768Y505506D02*
X570779Y505517D01*
X611068D01*
X750518Y410517D02*
X766068D01*
X752583Y500517D02*
X766068D01*
X750518Y498453D02*
X752583Y500517D01*
X750518Y410517D02*
Y498453D01*
X586268Y455006D02*
X586518Y455256D01*
X586268Y375006D02*
Y455006D01*
Y375006D02*
X614268Y347006D01*
X614268D02*
X616026Y345249D01*
X614268Y347006D02*
X614268D01*
X582518Y309256D02*
X616026Y342763D01*
Y345249D01*
X582518Y227006D02*
Y309256D01*
X584768Y224756D02*
X616268D01*
X582518Y227006D02*
X584768Y224756D01*
X616268D02*
X624768Y216256D01*
Y197256D02*
Y216256D01*
X721687Y443712D02*
Y491087D01*
X721268Y491506D02*
X721687Y491087D01*
X713268Y303006D02*
X730718Y285556D01*
Y284256D02*
Y285556D01*
X713268Y303006D02*
Y347506D01*
X568768Y316256D02*
X599268Y346756D01*
X600268D01*
X568768Y197006D02*
Y316256D01*
X536018Y164256D02*
X568768Y197006D01*
X496675Y164256D02*
X536018D01*
X575518Y310756D02*
X605268Y340506D01*
X496675Y56756D02*
Y60506D01*
X448018Y270256D02*
X448526D01*
X766068Y440517D02*
X777757D01*
X777768Y440506D01*
X766068Y450517D02*
X778007D01*
X778018Y450506D01*
X766068Y460517D02*
X778257D01*
X778268Y460506D01*
X611068Y475517D02*
X687280D01*
X685030Y480517D02*
X703568Y499056D01*
X611068Y480517D02*
X685030D01*
X570007D02*
X611068D01*
X702268Y383756D02*
X724029Y405517D01*
X644018Y582256D02*
X671268D01*
X663518Y516506D02*
X663568Y516556D01*
X663518Y510006D02*
Y516506D01*
X663568Y516556D02*
Y523017D01*
X718568Y510206D02*
Y523017D01*
Y510206D02*
X719018Y509756D01*
X718568Y523017D02*
X723568D01*
X668568D02*
Y556199D01*
X666761Y558006D02*
X668568Y556199D01*
X604768Y558006D02*
X666761D01*
X633568Y523017D02*
Y542456D01*
X633268Y542756D02*
X633568Y542456D01*
X748568Y523017D02*
Y552403D01*
X747952Y553019D02*
X748568Y552403D01*
X112518Y252256D02*
X131768D01*
X168268Y288756D01*
X728568Y523017D02*
Y560556D01*
X728768Y560756D01*
X112768Y373256D02*
X131768D01*
X167018Y408506D01*
X678568Y523017D02*
Y559706D01*
X671768Y566506D02*
X678568Y559706D01*
X136018Y499256D02*
X164768Y528006D01*
X117768Y499256D02*
X136018D01*
X405768Y271006D02*
X406518Y271756D01*
Y614756D01*
X284268Y737006D02*
X406518Y614756D01*
X221268Y737006D02*
X284268D01*
X426018Y189763D02*
Y498256D01*
X477268Y549506D01*
X683597Y318361D02*
Y367988D01*
X523968Y526556D02*
X570007Y480517D01*
X501768Y316756D02*
X502768Y315756D01*
Y296756D02*
Y315756D01*
X499768Y339756D02*
X501768Y337756D01*
X499768Y339756D02*
Y357756D01*
X570808Y465517D02*
X611068D01*
X555268Y449977D02*
X570808Y465517D01*
X560268Y477256D02*
X567007Y470517D01*
X611068D01*
X555268Y408256D02*
Y449977D01*
X552568Y405556D02*
X555268Y408256D01*
X530268Y405556D02*
X552568D01*
X530568Y477256D02*
X560268D01*
X530268Y476956D02*
X530568Y477256D01*
D64*
X595000Y592224D02*
Y623796D01*
Y592224D02*
X601968Y585256D01*
X67768Y228256D02*
Y296756D01*
X90568Y319556D01*
X67768Y431756D02*
X84068Y448056D01*
X67768Y343256D02*
Y431756D01*
X611518Y600806D02*
X611568Y600756D01*
X611518Y600806D02*
Y601556D01*
X670268Y606241D02*
X672518Y603991D01*
X644768Y618756D02*
X654518D01*
X659548Y606241D02*
X670268D01*
X611568Y600756D02*
X642518D01*
X658518Y607271D02*
X659548Y606241D01*
X642518Y621006D02*
X644768Y618756D01*
X654518D02*
X658518Y614756D01*
Y607271D02*
Y614756D01*
X642518Y621006D02*
Y623756D01*
X698468D02*
X698518Y623706D01*
X672718Y600956D02*
X689018D01*
X672518Y600756D02*
Y603991D01*
Y600756D02*
X672718Y600956D01*
X698518Y620556D02*
Y623706D01*
X672518Y623756D02*
X698468D01*
X87768Y569256D02*
X107759D01*
X107809Y569056D02*
Y569206D01*
X107759Y569256D02*
X107809Y569206D01*
X73018Y474256D02*
Y554506D01*
X87768Y569256D01*
X84068Y448056D02*
X102559D01*
X90568Y319556D02*
X102509D01*
X102559Y319606D02*
Y322856D01*
X102509Y319556D02*
X102559Y319606D01*
X93059Y419547D02*
Y428456D01*
X85018Y405506D02*
Y411506D01*
X82768Y403256D02*
X85018Y405506D01*
Y411506D02*
X93059Y419547D01*
X112059Y428456D02*
X112109Y428406D01*
Y403915D02*
X112768Y403256D01*
X489268Y418856D02*
X502568Y405556D01*
X530268D01*
X490369Y467656D02*
X499669Y476956D01*
X489268Y467656D02*
X490369D01*
X499669Y476956D02*
X530268D01*
X505418Y246006D02*
X507668Y248256D01*
X505418Y244756D02*
Y246006D01*
X507668Y248256D02*
X525018D01*
X505418Y244756D02*
X505443Y244731D01*
Y205781D02*
Y244731D01*
Y205781D02*
X505468Y205756D01*
X82518Y252256D02*
Y282256D01*
X84768Y284506D02*
Y291715D01*
X93059Y300006D02*
Y303256D01*
X84768Y291715D02*
X93059Y300006D01*
X82518Y282256D02*
X84768Y284506D01*
X82768Y373256D02*
Y403256D01*
X82768Y373256D02*
X82768Y373256D01*
X87768Y499256D02*
Y529256D01*
X90018Y531506D02*
Y537915D01*
X98309Y546206D02*
Y549456D01*
X90018Y537915D02*
X98309Y546206D01*
X87768Y529256D02*
X90018Y531506D01*
D65*
X167750Y199750D02*
X349262Y199750D01*
X74750Y150250D02*
X118250D01*
X167750Y199750D01*
X840000Y1020250D02*
Y1022000D01*
Y1020250D02*
X840250Y1020000D01*
X859000D01*
X875194Y1003806D02*
X876018D01*
X859000Y1020000D02*
X875194Y1003806D01*
X840000Y807750D02*
X867191Y834941D01*
Y842579D01*
X840000Y804000D02*
Y807750D01*
X867191Y842579D02*
X876018Y851406D01*
X840000Y778000D02*
Y780071D01*
X840250Y780321D02*
X853142D01*
X874652Y801831D02*
X877593D01*
X840000Y780071D02*
X840250Y780321D01*
X853142D02*
X874652Y801831D01*
X840250Y937974D02*
Y953000D01*
Y937974D02*
X876018Y902206D01*
X866000Y963024D02*
Y975000D01*
X859000Y982000D02*
X866000Y975000D01*
X840000Y982000D02*
X859000D01*
X839000Y983000D02*
X840000Y982000D01*
X866000Y963024D02*
X876018Y953006D01*
X810268Y906000D02*
X820000Y896268D01*
X810268Y906000D02*
Y954256D01*
Y851756D02*
Y872000D01*
Y848006D02*
Y851756D01*
X820000Y878000D02*
Y896268D01*
X810268Y872000D02*
X814000D01*
X820000Y878000D01*
X810268Y848006D02*
X810518Y847756D01*
X55868Y169132D02*
Y227614D01*
Y169132D02*
X74750Y150250D01*
X349262Y199750D02*
X382768Y233256D01*
X28268Y234156D02*
X28952Y233472D01*
X50010D02*
X55868Y227614D01*
X23268Y234156D02*
X28268D01*
X28952Y233472D02*
X50010D01*
X28268Y234156D02*
X55000Y260888D01*
X793250Y268774D02*
X871018Y191006D01*
X810268Y294256D02*
Y394256D01*
Y446756D01*
Y495456D01*
X815268Y285304D02*
Y294256D01*
X810268Y495456D02*
Y546756D01*
X810018Y547006D02*
Y595256D01*
X810268Y595506D02*
Y649256D01*
Y699256D01*
X810018Y547006D02*
X810268Y546756D01*
Y699256D02*
Y749256D01*
Y805506D01*
Y954256D02*
Y1004256D01*
Y1054256D01*
X810518Y809185D02*
Y847756D01*
X810518Y809185D02*
X810518Y809185D01*
X810518Y805756D02*
Y809185D01*
X810268Y805506D02*
X810518Y805756D01*
X209792Y786388D02*
Y851030D01*
X216650Y779530D02*
X304592D01*
X492442Y591680D01*
X496368Y591656D01*
X496542Y591680D01*
X210042Y851280D02*
X809469D01*
X458542Y444547D02*
X460322Y446326D01*
X458542Y347638D02*
Y444547D01*
Y347638D02*
X464400Y341780D01*
X471359Y341713D01*
X471518D01*
X471768Y337756D01*
X496342Y539080D02*
Y542530D01*
X458542Y501280D02*
X496342Y539080D01*
X458542Y448106D02*
Y501280D01*
X871966Y241806D02*
X875817D01*
X871966D02*
Y241913D01*
X871151Y242728D02*
X871966Y241913D01*
X868222Y245657D02*
X871151Y242728D01*
X854916Y245657D02*
X868222D01*
X815268Y285304D02*
X854916Y245657D01*
X526342Y449580D02*
X530244D01*
X460525Y446530D02*
X523292D01*
X471542Y316982D02*
Y337530D01*
X496542Y603030D02*
X497018Y603506D01*
X496542Y591680D02*
Y603030D01*
X209792Y786388D02*
X216650Y779530D01*
X523292Y446530D02*
X526342Y449580D01*
X530042Y433182D02*
Y449330D01*
X496342Y542982D02*
Y565530D01*
X458542Y448106D02*
X460322Y446326D01*
X496342Y565982D02*
Y587530D01*
X55000Y260888D02*
Y362488D01*
Y464088D01*
X23268Y335756D02*
X28268D01*
X55000Y362488D01*
X45268Y102256D02*
X69518Y126506D01*
X45268Y91756D02*
Y102256D01*
X159518Y126506D02*
X163018Y123006D01*
X217268D01*
X69518Y126506D02*
X159518D01*
X112868Y606756D02*
X145268D01*
X23268Y691356D02*
X28268D01*
X112868Y606756D01*
X135651Y634773D02*
X144752D01*
X23268Y742156D02*
X28268D01*
X135651Y634773D01*
X144752D02*
X145268Y634256D01*
X77750Y740524D02*
Y799686D01*
X33680Y843756D02*
X77750Y799686D01*
X23268Y843756D02*
X33680D01*
X77750Y740524D02*
X138502Y679773D01*
X23268Y894556D02*
Y945356D01*
X841500Y293500D02*
X877000D01*
X842000Y343750D02*
X877500D01*
X841500Y393000D02*
X877000D01*
X840250Y446750D02*
X875750D01*
X841500Y495250D02*
X877000D01*
X841000Y545750D02*
X876500D01*
X841750Y597250D02*
X877250D01*
X840250Y648000D02*
X875750D01*
X841750Y698250D02*
X877250D01*
X841343Y750081D02*
X876843D01*
X875843Y851581D02*
X876018Y851406D01*
X840443Y1054431D02*
X875843D01*
X876018Y1054606D01*
X840268Y1054256D02*
X840443Y1054431D01*
X871018Y191006D02*
X876018D01*
X523968Y565756D02*
Y605556D01*
X138502Y679773D02*
X144752D01*
X145268Y679256D01*
X475168Y245006D02*
Y262856D01*
X474768Y263256D02*
X475168Y262856D01*
Y245006D02*
X475418Y244756D01*
X518518Y292006D02*
Y373006D01*
X518018Y291506D02*
X518518Y292006D01*
X510268Y381256D02*
Y385256D01*
Y381256D02*
X518518Y373006D01*
X523968Y526556D02*
Y542756D01*
Y497556D02*
Y526556D01*
X477768Y370648D02*
X484876Y377756D01*
X502768D01*
X477768Y358756D02*
Y370648D01*
X502768Y377756D02*
X510268Y385256D01*
X523968Y497556D02*
X524018Y497506D01*
X327768Y801756D02*
X523968Y605556D01*
X232768Y801756D02*
X327768D01*
X840268Y293681D02*
X840518Y293431D01*
X840268Y293681D02*
Y294256D01*
Y343656D02*
X840518Y343406D01*
X840268Y343656D02*
Y344256D01*
Y394256D02*
X840293Y394231D01*
X840268Y445256D02*
X840518Y445006D01*
X840268Y445256D02*
Y446756D01*
Y495456D02*
Y495556D01*
X840518Y495806D01*
X840268Y546756D02*
X840343Y546681D01*
X840268Y598581D02*
X840518Y598331D01*
X840268Y598581D02*
Y599256D01*
Y648456D02*
Y649256D01*
Y648456D02*
X840518Y648206D01*
X840268Y699256D02*
X840518Y699006D01*
X840268Y699256D02*
Y699256D01*
Y749256D02*
Y749556D01*
X840518Y749806D01*
X621018Y581956D02*
X621318Y582256D01*
X644018D01*
X446768Y220506D02*
X467518Y241256D01*
X475418Y244577D02*
Y244756D01*
X446768Y178756D02*
Y220506D01*
X467518Y241827D02*
X472668D01*
X475418Y244577D01*
X467518Y241256D02*
Y241827D01*
X730718Y284256D02*
X758268D01*
X614518Y312006D02*
X635468D01*
X614268Y312256D02*
X614518Y312006D01*
X635468D02*
X637818Y309656D01*
Y284106D02*
X640418Y281506D01*
X637818Y284106D02*
Y284256D01*
X640418Y281506D02*
X667268D01*
X689918Y258856D02*
X730718D01*
X667268Y281506D02*
X689918Y258856D01*
X217268Y123006D02*
X227118Y132856D01*
X247568D01*
X247768Y133056D01*
X212768Y679256D02*
X297768D01*
X382768Y594256D01*
X255268Y461756D02*
Y553398D01*
X249410Y559256D02*
X255268Y553398D01*
X210268Y559256D02*
X249410D01*
X255268Y461756D02*
X309811Y407213D01*
X328811D01*
X382768Y353256D01*
X220268Y584256D02*
X262768D01*
X280268Y566756D01*
X212768Y591756D02*
X220268Y584256D01*
X280268Y464256D02*
Y566756D01*
Y464256D02*
X316268Y428256D01*
X347768D01*
X382768Y472756D02*
Y594256D01*
X150062Y308256D02*
X152768D01*
X135462Y322856D02*
X150062Y308256D01*
X102559Y322856D02*
X135462D01*
X112109Y403915D02*
Y428406D01*
X132968Y448056D02*
X152768Y428256D01*
X102559Y448056D02*
X132968D01*
X247768Y115456D02*
Y133056D01*
X249068Y131756D01*
X275268D01*
X283968Y140456D02*
X307768D01*
X275268Y131756D02*
X283968Y140456D01*
X307768D02*
X330018D01*
X340768Y151206D01*
X523968Y542756D02*
Y565756D01*
D66*
X655000Y141000D02*
X706000Y90000D01*
X725000D01*
X681512Y60000D02*
X725000D01*
X672512Y69000D02*
X681512Y60000D01*
X654076Y69924D02*
X655000Y69000D01*
X638101Y69924D02*
X654076D01*
X655000Y69000D02*
X672512D01*
X604018Y104006D02*
X638101Y69924D01*
X655000Y141000D02*
X664262D01*
X402018Y34256D02*
X822768D01*
X839012Y50500D01*
X389018Y47256D02*
X402018Y34256D01*
X840399Y50500D02*
X844414Y54514D01*
Y65401D02*
X845768Y66756D01*
X844414Y54514D02*
Y65401D01*
X389018Y47256D02*
Y95006D01*
X839012Y50500D02*
X840399D01*
X643508Y24256D02*
X812768D01*
X643008Y23756D02*
X643508Y24256D01*
X379268Y43506D02*
X399018Y23756D01*
X643008D01*
X375168Y87706D02*
X379268Y83605D01*
X360268Y87706D02*
X375168D01*
X379268Y43506D02*
Y83605D01*
X383618Y100406D02*
X389018Y95006D01*
X403869Y45506D02*
X455425D01*
X461175Y51256D01*
X399768Y49607D02*
Y121706D01*
X464925Y51256D02*
X466675Y53006D01*
X461175Y51256D02*
X464925D01*
X399768Y49607D02*
X403869Y45506D01*
X466675Y53006D02*
Y56756D01*
X360268Y100406D02*
X383618D01*
X360268Y125806D02*
X395668D01*
X399768Y121706D01*
X341060Y75006D02*
X360268D01*
X334310Y81756D02*
X341060Y75006D01*
X332768Y81756D02*
X334310D01*
X212068Y160456D02*
X247768D01*
X197768Y146156D02*
X212068Y160456D01*
X283968Y88056D02*
X309718Y62306D01*
X360268D01*
X247768Y88056D02*
X283968D01*
X197768Y97356D02*
X198599D01*
X207899Y88056D02*
X247768D01*
X198599Y97356D02*
X207899Y88056D01*
X340768Y151206D02*
X360268D01*
X307768Y113056D02*
X307793Y113081D01*
X360243D02*
X360268Y113106D01*
X307793Y113081D02*
X360243D01*
X470768Y75756D02*
Y79256D01*
X466675Y56756D02*
X468425Y58506D01*
Y73413D01*
X470768Y75756D01*
X495268Y79756D02*
Y97399D01*
X496675Y98806D01*
X494768Y79256D02*
X495268Y79756D01*
X466675Y160506D02*
X470268Y156913D01*
Y142256D02*
X470768Y141756D01*
X470268Y142256D02*
Y156913D01*
X466675Y160506D02*
Y164256D01*
X495268Y123163D02*
Y141256D01*
Y123163D02*
X496675Y121756D01*
X494768Y141756D02*
X495268Y141256D01*
X654768Y196306D02*
X656518Y194556D01*
X654768Y196306D02*
Y197256D01*
X656518Y194556D02*
X677268D01*
X686768Y214156D02*
X710018D01*
X715018Y199006D02*
Y209156D01*
X710018Y214156D02*
X715018Y209156D01*
Y199006D02*
X716768Y197256D01*
X664262Y141000D02*
X716768Y193506D01*
Y197256D01*
D67*
X783000Y263000D02*
Y405017D01*
Y263000D02*
X807000Y239000D01*
X667268Y302032D02*
X683597Y318361D01*
X667268Y281506D02*
Y302032D01*
D68*
X797900Y401400D02*
Y505600D01*
X793250Y396750D02*
X797900Y401400D01*
X793250Y268774D02*
Y396750D01*
X765750Y537750D02*
X797900Y505600D01*
X744794Y600956D02*
X765750Y580000D01*
X708018Y600956D02*
X744794D01*
X765750Y537750D02*
Y580000D01*
D69*
X111968Y963256D02*
X121118D01*
X130268Y954106D01*
X28268Y1046956D02*
X111968Y963256D01*
X28268Y437356D02*
X55000Y464088D01*
Y549537D01*
X23268Y437356D02*
X28268D01*
X23268Y538956D02*
X26138Y541826D01*
X47289D01*
X55000Y549537D01*
Y613824D01*
X23268Y640556D02*
X28268D01*
X55000Y613824D01*
X23268Y1046956D02*
X28268D01*
X170418Y954106D02*
X185268Y939256D01*
X130268Y954106D02*
X170418D01*
X185268Y674256D02*
Y939256D01*
X114768Y230756D02*
X150268D01*
X152768Y233256D01*
X185268Y505256D02*
Y674256D01*
X257768Y601756D01*
X293768D01*
X347768Y547756D01*
X152768Y353256D02*
X185268Y385756D01*
Y265756D02*
Y369256D01*
X246268Y308256D02*
X347768D01*
X185268Y369256D02*
X246268Y308256D01*
X185268Y369256D02*
Y385756D01*
X113768Y404256D02*
X127768D01*
X112768Y403256D02*
X113768Y404256D01*
X152768Y233256D02*
X185268Y265756D01*
Y385756D02*
Y505256D01*
X152768Y472756D02*
X185268Y505256D01*
X132176Y348664D02*
X148176D01*
X126768Y343256D02*
X132176Y348664D01*
X112768Y343256D02*
X126768D01*
X148176Y348664D02*
X152768Y353256D01*
X118768Y473506D02*
X152018D01*
X152768Y472756D01*
X118018Y474256D02*
X118768Y473506D01*
D70*
X130268Y852506D02*
Y903306D01*
X25181Y994243D02*
X36952D01*
X128739Y902456D02*
X129768D01*
X36952Y994243D02*
X128739Y902456D01*
X23268Y996156D02*
X25181Y994243D01*
X123339Y906176D02*
X127380Y902136D01*
X119132Y906176D02*
X123339D01*
D71*
X117309Y546206D02*
Y549456D01*
X119268Y527756D02*
X131768D01*
X117309Y546206D02*
X117768Y545747D01*
X131768Y527756D02*
X132768Y526756D01*
X117768Y529256D02*
X119268Y527756D01*
X117768Y529256D02*
Y545747D01*
X113018Y281756D02*
X130268D01*
X112518Y282256D02*
X113018Y281756D01*
X112059Y300006D02*
Y303256D01*
X112518Y282256D02*
Y299547D01*
X112059Y300006D02*
X112518Y299547D01*
X131468Y569056D02*
X152768Y547756D01*
X107809Y569056D02*
X131468D01*
D72*
X19000Y128000D02*
D03*
X20000Y45000D02*
D03*
D73*
X91000Y87000D02*
D03*
D74*
X46000D02*
D03*
D75*
X872768Y139456D02*
D03*
Y19056D02*
D03*
D76*
X845768Y91756D02*
D03*
Y66756D02*
D03*
X825768D02*
D03*
D77*
Y91756D02*
D03*
D78*
X129768Y953256D02*
D03*
D79*
X719768Y747056D02*
D03*
Y1007056D02*
D03*
X124768D02*
D03*
Y747056D02*
D03*
D80*
X489268Y467656D02*
D03*
Y418856D02*
D03*
X197768Y97356D02*
D03*
Y146156D02*
D03*
D81*
X876018Y191006D02*
D03*
Y1003806D02*
D03*
Y851406D02*
D03*
Y902206D02*
D03*
Y953006D02*
D03*
Y800606D02*
D03*
Y445006D02*
D03*
Y699006D02*
D03*
Y648206D02*
D03*
Y394206D02*
D03*
Y241806D02*
D03*
Y597406D02*
D03*
Y343406D02*
D03*
Y546606D02*
D03*
Y749806D02*
D03*
Y292606D02*
D03*
Y495806D02*
D03*
X23268Y488156D02*
D03*
Y284956D02*
D03*
Y742156D02*
D03*
Y538956D02*
D03*
Y335756D02*
D03*
Y589756D02*
D03*
Y234156D02*
D03*
Y386556D02*
D03*
Y640556D02*
D03*
Y691356D02*
D03*
Y437356D02*
D03*
Y792956D02*
D03*
Y945356D02*
D03*
Y894556D02*
D03*
Y843756D02*
D03*
Y996156D02*
D03*
Y183356D02*
D03*
D82*
X876018Y1054606D02*
D03*
X23268Y1046956D02*
D03*
D83*
X655000Y69000D02*
D03*
D84*
Y141000D02*
D03*
D85*
X152768Y233256D02*
D03*
X347768Y308256D02*
D03*
X312768Y233256D02*
D03*
X382768D02*
D03*
X152768Y308256D02*
D03*
Y353256D02*
D03*
X347768Y428256D02*
D03*
X312768Y353256D02*
D03*
X382768D02*
D03*
X152768Y428256D02*
D03*
Y472756D02*
D03*
X347768Y547756D02*
D03*
X312768Y472756D02*
D03*
X382768D02*
D03*
X152768Y547756D02*
D03*
D86*
X778018Y490617D02*
D03*
X766100Y240506D02*
D03*
X138000Y150000D02*
D03*
X783750Y486750D02*
D03*
X807000Y239000D02*
D03*
X784750Y425500D02*
D03*
X784500Y435317D02*
D03*
X784750Y415606D02*
D03*
X784000Y475417D02*
D03*
Y465617D02*
D03*
X784250Y455400D02*
D03*
Y445500D02*
D03*
X778750Y420417D02*
D03*
X737000Y506500D02*
D03*
X745250Y505417D02*
D03*
X594750Y296750D02*
D03*
X778000Y430417D02*
D03*
X777750Y470617D02*
D03*
X777692Y480417D02*
D03*
X604018Y104006D02*
D03*
X655268Y224506D02*
D03*
X558268Y214256D02*
D03*
X597768Y485506D02*
D03*
X579018Y390006D02*
D03*
X570768Y505506D02*
D03*
X461768Y299756D02*
D03*
X586518Y455256D02*
D03*
X721268Y491506D02*
D03*
X721687Y443712D02*
D03*
X713268Y347506D02*
D03*
X600268Y346756D02*
D03*
X777768Y440506D02*
D03*
X778018Y450506D02*
D03*
X778268Y460506D02*
D03*
D87*
X697500Y500625D02*
D03*
X711000Y499750D02*
D03*
X678768Y383506D02*
D03*
X702268Y383756D02*
D03*
X644018Y582256D02*
D03*
X497268Y603506D02*
D03*
X663518Y510006D02*
D03*
X719018Y509756D02*
D03*
D88*
X787250Y10750D02*
D03*
X812768Y24256D02*
D03*
X792768Y59256D02*
D03*
X152018Y773506D02*
D03*
X168268Y288756D02*
D03*
X167018Y408506D02*
D03*
X164768Y528006D02*
D03*
X448018Y270256D02*
D03*
X405768Y271006D02*
D03*
X221268Y737006D02*
D03*
X477268Y549506D02*
D03*
X478268Y183756D02*
D03*
X446768Y151256D02*
D03*
X448518Y119756D02*
D03*
X446768Y178756D02*
D03*
D89*
X605268Y340506D02*
D03*
X726268Y222756D02*
D03*
X688768Y182256D02*
D03*
X474768Y263256D02*
D03*
X518018Y291506D02*
D03*
X510268Y385256D02*
D03*
X524018Y497506D02*
D03*
X633268Y542756D02*
D03*
X747952Y553019D02*
D03*
X728768Y560756D02*
D03*
X671768Y566506D02*
D03*
D90*
X210018Y851256D02*
D03*
X232768Y801756D02*
D03*
X145268Y606756D02*
D03*
X210268Y559256D02*
D03*
X145268Y634256D02*
D03*
X212768Y591756D02*
D03*
Y679256D02*
D03*
X145268D02*
D03*
X132768Y526756D02*
D03*
X127768Y404256D02*
D03*
X130268Y281756D02*
D03*
X332768Y81756D02*
D03*
M02*
