M48
;Layer_Color=9474304
;FILE_FORMAT=4:4
METRIC,LZ
;TYPE=PLATED
T11F00S00C1.5000
T12F00S00C2.0000
%
T11
X00023268Y00183356
X00876018Y00191006
Y00241806
Y00292606
Y00343406
Y00394206
Y00445006
Y00495806
Y00546606
X00023268Y00538956
Y00488156
Y00437356
Y00386556
Y00335756
Y00284956
Y00234156
Y00589756
Y00640556
Y00691356
Y00742156
Y00792956
Y00843756
Y00894556
Y00945356
X00876018Y00953006
Y00902206
Y00851406
Y00800606
Y00749806
Y00699006
Y00648206
Y00597406
Y01003806
Y01054606
X00023268Y01046956
Y00996156
T12
X0002Y00045
X00019Y00128
M30
