M48
;Layer_Color=9474304
;FILE_FORMAT=4:4
METRIC,LZ
;TYPE=PLATED
T1F00S00C0.2000
T2F00S00C0.3000
T3F00S00C0.4000
T4F00S00C0.6570
T5F00S00C0.7112
T6F00S00C0.9000
T7F00S00C1.0000
T10F00S00C1.5000
T13F00S00C2.3000
T14F00S00C2.6000
T15F00S00C3.0000
%
T01
X00138Y0015
X00604018Y00104006
X00558268Y00214256
X00655268Y00224506
X007661Y00240506
X00807Y00239
X0078475Y00415606
Y004255
X007845Y00435317
X0078425Y004455
Y004554
X00784Y00465617
Y00475417
X0077775Y00470617
X00777692Y00480417
X00778018Y00490617
X0078375Y0048675
X00778268Y00460506
X00778018Y00450506
X00777768Y00440506
X00778Y00430417
X0077875Y00420417
X00721687Y00443712
X00721268Y00491506
X00719018Y00509756
X00737Y005065
X0074525Y00505417
X00663518Y00510006
X00597768Y00485506
X00586518Y00455256
X00570768Y00505506
X00579018Y00390006
X00600268Y00346756
X0059475Y0029675
X00713268Y00347506
X00461768Y00299756
T02
X00678768Y00383506
X00702268Y00383756
X006975Y00500625
X00711Y0049975
X00728768Y00560756
X00747952Y00553019
X00671768Y00566506
X00644018Y00582256
X00497268Y00603506
T03
X00448518Y00119756
X00446768Y00151256
Y00178756
X00478268Y00183756
X00688768Y00182256
X00792768Y00059256
X0078725Y0001075
X00812768Y00024256
X00726268Y00222756
X00605268Y00340506
X00518018Y00291506
X00510268Y00385256
X00524018Y00497506
X00633268Y00542756
X00477268Y00549506
X00474768Y00263256
X00448018Y00270256
X00405768Y00271006
X00168268Y00288756
X00167018Y00408506
X00164768Y00528006
X00152018Y00773506
X00221268Y00737006
T04
X00197768Y00097356
Y00146156
X00489268Y00418856
Y00467656
T05
X00332768Y00081756
X00130268Y00281756
X00127768Y00404256
X00132768Y00526756
X00210268Y00559256
X00212768Y00591756
X00145268Y00606756
Y00634256
Y00679256
X00212768
X00232768Y00801756
X00210018Y00851256
T06
X00825768Y00066756
X00845768
Y00091756
X00825768
T07
X00655Y00069
Y00141
X00382768Y00233256
X00312768
X00347768Y00308256
X00312768Y00353256
X00382768
X00347768Y00428256
X00312768Y00472756
X00382768
X00347768Y00547756
X00152768
Y00472756
Y00428256
Y00353256
Y00308256
Y00233256
T10
X00129768Y00800856
Y00851656
Y00902456
Y00953256
T13
X00872768Y00019056
Y00139456
T14
X00124768Y00747056
X00719768
Y01007056
X00124768
T15
X00099Y0019
X00798906Y00189614
X00799Y0089
M30
